<svg width="299" height="35" viewBox="0 0 299 35" fill="none" xmlns="http://www.w3.org/2000/svg">
<path d="M280.718 22.5555C280.309 22.5769 279.895 22.5916 279.494 22.6237C279.234 22.6437 279.122 22.5849 278.949 22.5542C278.891 22.5435 278.829 22.5221 278.775 22.5248C278.37 22.5462 277.965 22.5702 277.56 22.5943C277.436 22.6464 277.357 22.7159 277.167 22.7413C276.981 22.7653 276.762 22.7653 276.555 22.7773C276.283 22.792 276.01 22.8067 275.737 22.8201C275.601 22.8268 275.489 22.8522 275.444 22.9003C275.435 22.9083 275.526 22.9283 275.576 22.9404C275.741 22.9804 275.902 23.0259 276.084 23.0566C276.258 23.086 276.473 23.0379 276.659 23.0753C277.076 23.1595 277.08 23.1582 277.399 23.1421C277.672 23.1274 277.944 23.1114 278.217 23.1007C278.271 23.098 278.333 23.1181 278.391 23.1288C278.564 23.1582 278.676 23.225 278.932 23.1996C279.127 23.1795 279.341 23.1755 279.544 23.1648C279.713 23.2036 279.871 23.2477 280.052 23.2784C280.222 23.3078 280.272 23.3305 280.181 23.3693C280.098 23.4054 279.982 23.4201 279.829 23.4227C279.693 23.4241 279.556 23.4361 279.42 23.4428C279.35 23.4468 279.284 23.4495 279.217 23.4535C278.957 23.4682 278.957 23.4682 278.482 23.3826C278.296 23.3492 278.085 23.396 277.907 23.3639C277.787 23.3426 277.684 23.3105 277.568 23.2878C277.519 23.2784 277.44 23.2771 277.378 23.2798C277.171 23.2891 276.965 23.2958 276.766 23.3132C276.626 23.3252 276.543 23.3626 276.56 23.4C276.564 23.4147 276.663 23.4361 276.721 23.4374C276.853 23.4401 276.994 23.4214 277.122 23.4307C277.246 23.4401 277.374 23.4668 277.465 23.4962C277.651 23.5577 277.862 23.5029 278.039 23.5189C278.225 23.5363 278.378 23.5898 278.556 23.6218C278.601 23.6298 278.688 23.6165 278.759 23.6125C278.961 23.6031 279.164 23.5951 279.366 23.5858C279.536 23.6245 279.718 23.6592 279.871 23.7033C280.148 23.7835 280.445 23.8142 280.805 23.7755C281.007 23.7541 281.206 23.7621 281.367 23.8142C281.532 23.8677 281.722 23.8623 281.933 23.8517C282.127 23.841 282.326 23.8116 282.524 23.849C282.954 23.9318 282.958 23.9358 283.467 23.9038C283.62 23.8944 283.735 23.8917 283.851 23.9225C283.959 23.9505 284.074 23.9746 284.186 24.0013C284.389 23.992 284.595 23.9826 284.798 23.9719C285.058 23.9572 285.203 23.9759 285.265 24.0507C285.302 24.0962 285.319 24.1376 285.409 24.1683C285.517 24.2057 285.633 24.2044 285.79 24.1937C285.939 24.1844 286.046 24.1697 286.108 24.1216C286.133 24.1015 286.182 24.0828 286.228 24.0668C286.265 24.0548 286.323 24.0361 286.356 24.0387C286.418 24.0441 286.501 24.0588 286.521 24.0761C286.724 24.2378 286.724 24.2392 286.931 24.2859C287.158 24.338 287.394 24.3848 287.6 24.4436C287.786 24.4957 287.972 24.473 288.175 24.473C288.328 24.473 288.427 24.5077 288.415 24.5425C288.406 24.5625 288.348 24.5919 288.299 24.5946C287.894 24.6213 287.485 24.644 287.075 24.6627C287.026 24.6654 286.964 24.6413 286.906 24.6293C286.79 24.6053 286.687 24.5679 286.563 24.5598C286.439 24.5518 286.294 24.5719 286.158 24.5785C286.021 24.5852 285.877 24.6026 285.753 24.5919C285.629 24.5812 285.529 24.5425 285.414 24.5171C285.36 24.5051 285.286 24.4877 285.24 24.4917C284.938 24.5238 284.715 24.4797 284.5 24.4209C284.455 24.4089 284.376 24.4008 284.318 24.4035C283.839 24.4262 283.363 24.4529 282.884 24.4783C282.69 24.489 282.532 24.4423 282.491 24.3634C282.47 24.3193 282.429 24.2752 282.429 24.2311C282.429 24.151 282.202 24.1069 282.037 24.1162C281.764 24.1296 281.487 24.1403 281.218 24.1603C280.999 24.1763 280.813 24.1603 280.664 24.1122C280.491 24.0574 280.292 24.0681 280.094 24.0828C279.945 24.0935 279.904 24.1376 279.912 24.2485C279.92 24.338 279.85 24.3661 279.581 24.3808C279.242 24.3995 278.899 24.4182 278.556 24.4329C278.502 24.4356 278.44 24.4129 278.387 24.4008C278.271 24.3768 278.167 24.338 278.043 24.33C277.919 24.3207 277.775 24.3407 277.638 24.3487C277.502 24.3554 277.357 24.3741 277.233 24.3648C277.109 24.3554 277.006 24.3153 276.894 24.2899C276.841 24.2779 276.774 24.2605 276.721 24.2632C276.448 24.2739 276.175 24.2899 275.902 24.3046C275.596 24.3207 275.596 24.3207 275.162 24.2378C274.964 24.2004 274.766 24.2298 274.571 24.2405C274.365 24.2512 274.17 24.2565 274.009 24.2031C273.902 24.1683 273.782 24.147 273.654 24.1536C273.311 24.1697 272.972 24.1897 272.629 24.2058C272.571 24.2084 272.492 24.2017 272.447 24.1897C272.228 24.1336 272.013 24.0895 271.707 24.1176C271.442 24.1416 271.157 24.1429 270.892 24.1657C270.748 24.1777 270.682 24.2204 270.711 24.2539C270.727 24.2712 270.814 24.2913 270.872 24.2913C271.004 24.2926 271.149 24.2726 271.273 24.2806C271.529 24.2966 271.657 24.4088 271.992 24.3781C272.19 24.3594 272.397 24.3527 272.604 24.3474C272.657 24.346 272.715 24.3714 272.773 24.3848C272.939 24.4209 273.083 24.4676 273.323 24.4436C273.521 24.4249 273.732 24.4195 273.935 24.4089C274.257 24.3915 274.257 24.3928 274.675 24.4743C274.873 24.5131 275.071 24.4823 275.266 24.473C275.41 24.4663 275.547 24.453 275.663 24.4717C275.84 24.4997 275.968 24.5638 276.187 24.5598C276.394 24.5558 276.597 24.5371 276.803 24.5304C276.932 24.5264 277.051 24.5478 277.155 24.5839C277.262 24.62 277.378 24.636 277.518 24.628C277.721 24.6173 277.928 24.6039 278.134 24.5973C278.192 24.5959 278.258 24.6079 278.312 24.6186C278.428 24.6427 278.539 24.6707 278.651 24.6961C278.854 24.6881 279.06 24.6854 279.259 24.6694C279.412 24.6574 279.519 24.6627 279.643 24.6895C279.8 24.7255 279.928 24.7897 280.185 24.7589C280.313 24.7442 280.462 24.7482 280.59 24.7349C280.747 24.7175 280.854 24.7242 280.966 24.7643C281.177 24.8404 281.441 24.8418 281.714 24.8124C282.012 24.7803 282.235 24.8177 282.458 24.8765C282.694 24.938 282.694 24.9367 282.876 25.085C282.929 25.1277 283.082 25.1478 283.21 25.1398C283.425 25.1264 283.611 25.1331 283.768 25.1838C283.934 25.2386 284.132 25.232 284.335 25.2173C284.603 25.1972 284.872 25.1798 285.091 25.2573C285.199 25.2948 285.314 25.3041 285.459 25.2947C285.868 25.2707 286.282 25.256 286.683 25.2266C286.927 25.2079 287.067 25.2507 287.232 25.2867C287.456 25.3362 287.699 25.3803 287.699 25.4858C287.699 25.5032 287.757 25.5232 287.807 25.5366C287.914 25.5647 288.03 25.5887 288.142 25.6154C288.307 25.6555 288.468 25.6889 288.696 25.6676C288.894 25.6502 289.105 25.6448 289.307 25.6328C289.51 25.6208 289.696 25.6141 289.878 25.6649C290.089 25.7223 290.312 25.7771 290.552 25.8199C290.721 25.8506 290.944 25.7985 291.126 25.8399C291.238 25.8653 291.345 25.8947 291.465 25.9161C291.515 25.9254 291.593 25.9188 291.659 25.9161C291.796 25.9107 291.936 25.9067 292.069 25.8934C292.222 25.8787 292.337 25.8814 292.453 25.9121C292.561 25.9402 292.668 25.9789 292.792 25.9869C292.978 25.9989 293.185 25.9455 293.371 26.007C293.466 26.0377 293.586 26.0671 293.71 26.0764C293.834 26.0858 293.978 26.0657 294.111 26.0671C294.168 26.0671 294.239 26.0885 294.272 26.1058C294.292 26.1152 294.264 26.1406 294.235 26.1539C294.197 26.17 294.144 26.1914 294.09 26.194C293.681 26.2181 293.272 26.2381 292.862 26.2608C292.618 26.2742 292.618 26.2742 292.127 26.19C292.011 26.17 291.883 26.174 291.738 26.1833C291.544 26.1954 291.345 26.2181 291.143 26.194C290.878 26.1032 290.552 26.0951 290.204 26.1299C290.06 26.1446 289.927 26.1446 289.82 26.1192C289.593 26.0684 289.353 26.0217 289.15 25.9615C288.993 25.9148 288.919 25.9108 288.853 25.9749C288.832 25.9949 288.811 26.0163 288.816 26.035C288.84 26.1018 288.886 26.1673 288.911 26.2341C288.919 26.2528 288.886 26.2742 288.865 26.2942C288.799 26.3504 288.712 26.3463 288.568 26.2996C288.423 26.2528 288.249 26.2221 288.018 26.2435C287.819 26.2622 287.604 26.2595 287.406 26.2795C287.1 26.3089 286.885 26.2662 286.666 26.2087C286.621 26.1967 286.542 26.19 286.484 26.1927C285.868 26.2234 285.257 26.2582 284.641 26.2889C284.508 26.2956 284.389 26.2755 284.285 26.2395C284.178 26.2034 284.058 26.1847 283.925 26.1914C283.38 26.2194 282.834 26.2448 282.289 26.2795C282.065 26.2942 281.888 26.2769 281.735 26.2301C281.619 26.1954 281.512 26.1847 281.367 26.1887C281.21 26.1927 281.098 26.2061 281.02 26.2448C280.945 26.2822 280.999 26.3049 281.164 26.3343C281.342 26.3664 281.507 26.4078 281.677 26.4452C281.813 26.4399 281.95 26.4292 282.082 26.4305C282.14 26.4305 282.194 26.4546 282.251 26.4679C282.417 26.5067 282.57 26.5454 282.805 26.5241C283.004 26.5054 283.215 26.5014 283.417 26.4893C283.698 26.4746 283.698 26.4746 284.153 26.5588C284.269 26.5802 284.393 26.5788 284.541 26.5668C284.67 26.5575 284.802 26.5762 284.893 26.6163C284.93 26.6323 284.918 26.659 284.839 26.7472C284.839 26.8127 284.926 26.7833 284.955 26.7405C285 26.6791 284.913 26.659 284.748 26.6924C284.632 26.7165 284.575 26.7512 284.603 26.7793C284.62 26.794 284.699 26.8127 284.839 26.7472C285.203 26.667 285.48 26.6577 285.744 26.6363C285.901 26.6243 286.001 26.6296 286.125 26.6644C286.273 26.7058 286.422 26.7499 286.666 26.7285C286.931 26.7045 287.212 26.7018 287.48 26.6817C287.728 26.663 287.857 26.7218 288.014 26.7566C288.204 26.798 288.415 26.7512 288.588 26.7753C288.77 26.7993 288.898 26.8581 289.109 26.8688C289.415 26.8327 289.609 26.8995 289.841 26.9436C290.023 26.977 290.237 26.9476 290.432 26.9329C290.651 26.9169 290.833 26.9316 290.986 26.9797C291.159 27.0345 291.354 27.0225 291.552 27.0105C292.015 26.9837 292.031 26.9797 292.3 27.0532C292.494 27.1066 292.68 27.0826 292.875 27.0759C293.044 27.112 293.21 27.1507 293.387 27.1828C293.433 27.1908 293.52 27.1775 293.59 27.1735C293.792 27.1628 293.999 27.1521 294.202 27.1414C294.338 27.1347 294.483 27.1147 294.607 27.1227C294.731 27.132 294.834 27.1708 294.946 27.1962C295.057 27.2216 295.173 27.247 295.28 27.2737C295.446 27.3138 295.603 27.3472 295.834 27.3271C296.033 27.3098 296.239 27.3044 296.446 27.2924C296.706 27.2777 296.698 27.2817 297.182 27.3619C297.442 27.406 297.711 27.3525 297.975 27.3472C298.108 27.3445 298.236 27.3592 298.327 27.398C298.364 27.414 298.352 27.4407 298.364 27.4634C297.682 27.4995 296.996 27.5302 296.322 27.5743C296.062 27.5917 295.925 27.5436 295.785 27.5035C295.553 27.4394 295.247 27.5329 295.028 27.4501C294.896 27.4006 294.706 27.3726 294.478 27.3966C294.346 27.41 294.206 27.4086 294.069 27.4207C293.722 27.4501 293.404 27.4514 293.127 27.3592C293.032 27.3271 292.895 27.3098 292.796 27.279C292.68 27.2456 292.569 27.2269 292.432 27.2336C291.816 27.2657 291.205 27.2977 290.593 27.3325C290.539 27.3351 290.485 27.3552 290.44 27.3699C290.324 27.4073 290.361 27.4367 290.547 27.4608C290.609 27.4688 290.659 27.4861 290.717 27.4995C290.829 27.5249 290.932 27.565 291.056 27.5743C291.18 27.5837 291.325 27.565 291.461 27.5583C291.597 27.5516 291.742 27.5316 291.866 27.5396C291.99 27.5489 292.093 27.5877 292.209 27.6117C292.263 27.6238 292.329 27.6438 292.383 27.6425C292.656 27.6345 292.924 27.6198 293.197 27.6077C293.367 27.6438 293.511 27.6959 293.714 27.7079C293.842 27.716 293.978 27.7013 294.111 27.7039C294.168 27.7053 294.243 27.7253 294.272 27.7427C294.288 27.7534 294.235 27.7801 294.193 27.7935C294.036 27.8442 293.821 27.8349 293.627 27.8509C293.416 27.8683 293.226 27.8629 293.065 27.8108C292.957 27.7761 292.837 27.7574 292.705 27.7641C292.362 27.7814 292.023 27.8015 291.68 27.8162C291.622 27.8189 291.552 27.8068 291.498 27.7975C291.064 27.716 291.064 27.7133 290.758 27.7307C290.308 27.7561 290.308 27.756 290.006 27.6852C289.948 27.6719 289.886 27.6465 289.836 27.6478C289.357 27.6692 288.882 27.6906 288.406 27.7213C288.249 27.7307 288.142 27.7307 288.026 27.6959C287.927 27.6665 287.811 27.6331 287.687 27.6251C287.559 27.6171 287.418 27.6371 287.282 27.6438C287.146 27.6505 287.001 27.6679 286.881 27.6572C286.757 27.6465 286.65 27.6091 286.542 27.5824C286.43 27.5543 286.311 27.5556 286.158 27.5663C285.686 27.597 285.682 27.593 285.215 27.5102C285.161 27.5008 285.091 27.4901 285.033 27.4928C284.69 27.5089 284.351 27.5289 284.008 27.5449C283.876 27.5516 283.748 27.5342 283.657 27.4955C283.62 27.4795 283.632 27.4527 283.607 27.4006C283.578 27.3886 283.611 27.41 283.62 27.43C283.682 27.4273 283.756 27.43 283.802 27.4193C283.917 27.3939 283.975 27.3605 283.946 27.3325C283.93 27.3178 283.851 27.2991 283.802 27.2991C283.711 27.2991 283.632 27.3285 283.607 27.4006C283.347 27.4447 283.07 27.4541 282.801 27.4754C282.644 27.4888 282.545 27.4821 282.421 27.4474C282.272 27.4046 282.119 27.3632 281.875 27.3846C281.611 27.4086 281.33 27.4127 281.057 27.4314C280.743 27.4527 280.606 27.3325 280.342 27.3351C280.069 27.3378 279.796 27.3605 279.523 27.3766C279.284 27.3899 279.284 27.3899 278.788 27.3031C278.606 27.271 278.391 27.3178 278.213 27.2844C278.093 27.263 277.99 27.2309 277.874 27.2082C277.824 27.1989 277.746 27.1988 277.684 27.2015C277.341 27.2176 276.994 27.2282 276.663 27.2576C276.287 27.2924 276.002 27.255 275.733 27.1761C275.394 27.1908 275.051 27.1989 274.716 27.2242C274.472 27.2429 274.332 27.1989 274.166 27.1628C274.108 27.1508 274.059 27.1307 273.997 27.1254C273.935 27.12 273.86 27.1307 273.794 27.1347C273.521 27.1494 273.24 27.1561 272.976 27.1802C272.649 27.2109 272.525 27.1013 272.273 27.0879C272.104 27.1534 272.013 27.2429 271.678 27.2496C271.405 27.255 271.132 27.2764 270.859 27.2911C270.723 27.2977 270.587 27.3058 270.45 27.3124C270.231 27.3245 270.128 27.3766 270.173 27.4567C270.198 27.5008 270.219 27.5449 270.239 27.589C270.281 27.6679 270.177 27.7347 270.004 27.744C269.524 27.7694 269.049 27.7961 268.569 27.8188C268.441 27.8255 268.317 27.8028 268.214 27.7667C268.106 27.7307 267.987 27.7146 267.854 27.7213C267.375 27.7467 266.899 27.7734 266.42 27.7961C266.366 27.7988 266.296 27.7854 266.242 27.7748C266.127 27.7507 266.015 27.7227 265.903 27.6973C265.63 27.7093 265.362 27.7173 265.093 27.7333C264.659 27.7574 264.659 27.7587 264.341 27.6852C264.283 27.6719 264.225 27.6465 264.171 27.6478C263.965 27.6532 263.762 27.6665 263.555 27.6786C262.948 27.7133 262.948 27.7133 262.77 27.6732C262.609 27.6358 262.464 27.5904 262.22 27.6117C261.956 27.6358 261.675 27.6438 261.402 27.6572C261.199 27.6665 260.997 27.6772 260.794 27.6799C260.74 27.6812 260.683 27.6558 260.625 27.6425C260.459 27.6011 260.298 27.5676 260.071 27.5904C259.938 27.6037 259.798 27.6064 259.662 27.6131C259.306 27.6318 259.306 27.6318 258.723 27.5516C258.665 27.5436 258.595 27.5342 258.537 27.5382C258.058 27.5623 257.582 27.589 257.103 27.6117C257.045 27.6144 256.975 27.6064 256.917 27.5997C256.264 27.5222 256.264 27.5222 255.569 27.5596C255.305 27.573 255.297 27.5783 255.02 27.5075C254.896 27.4768 254.792 27.4621 254.648 27.4714C254.102 27.5035 253.552 27.5249 253.011 27.5623C252.767 27.5783 252.626 27.5382 252.461 27.5022C252.403 27.4901 252.341 27.4634 252.291 27.4648C251.746 27.4902 251.2 27.5209 250.655 27.5463C250.605 27.5489 250.543 27.5222 250.485 27.5102C250.373 27.4861 250.266 27.4501 250.142 27.442C250.014 27.434 249.873 27.4541 249.733 27.4608C249.39 27.4781 249.39 27.4768 248.993 27.398C248.939 27.3873 248.869 27.3726 248.815 27.3752C248.269 27.402 247.72 27.4247 247.178 27.4634C246.868 27.4848 246.657 27.446 246.438 27.3899C246.393 27.3779 246.314 27.3726 246.256 27.3752C245.641 27.406 245.029 27.4407 244.413 27.4714C244.285 27.4781 244.161 27.4554 244.057 27.4207C243.892 27.3659 243.698 27.3726 243.491 27.3846C243.016 27.4126 243.012 27.4113 242.731 27.3472C242.673 27.3338 242.623 27.3164 242.561 27.3098C242.503 27.3031 242.429 27.3071 242.367 27.3098C242.094 27.3231 241.821 27.3378 241.548 27.3525C241.276 27.3672 240.999 27.3752 240.73 27.398C240.399 27.426 240.242 27.3391 240.011 27.2991C239.672 27.3164 239.324 27.3271 238.99 27.3552C238.733 27.3766 238.614 27.3178 238.444 27.287C238.386 27.2763 238.324 27.2536 238.27 27.2563C237.655 27.2857 237.039 27.3178 236.427 27.3538C236.278 27.3619 236.179 27.3512 236.055 27.3191C235.778 27.247 235.766 27.2496 235.303 27.2764C235.1 27.2884 234.906 27.2991 234.732 27.2443C234.579 27.1948 234.393 27.1828 234.174 27.1988C233.905 27.2189 233.628 27.2296 233.356 27.2429C233.083 27.2576 232.81 27.2777 232.537 27.2844C232.318 27.291 232.186 27.2283 232.012 27.1962C231.959 27.1868 231.884 27.1855 231.822 27.1882C231.549 27.2002 231.268 27.2095 231.004 27.2322C230.681 27.2603 230.504 27.1868 230.276 27.1441C230.227 27.1347 230.144 27.1401 230.082 27.1441C229.602 27.1681 229.127 27.1948 228.647 27.2202C228.478 27.1841 228.304 27.1494 228.135 27.1133C227.862 27.1267 227.589 27.1414 227.316 27.1548C227.11 27.1654 226.899 27.1695 226.705 27.1895C226.453 27.2162 226.329 27.1534 226.159 27.1227C226.101 27.112 226.039 27.0893 225.986 27.092C225.642 27.1067 225.299 27.1227 224.96 27.1454C224.638 27.1681 224.51 27.0479 224.245 27.0492C223.972 27.0505 223.691 27.0679 223.427 27.092C223.121 27.12 222.906 27.0773 222.687 27.0198C222.641 27.0078 222.563 27.0011 222.505 27.0038C222.162 27.0198 221.823 27.0398 221.48 27.0559C221.422 27.0585 221.352 27.0519 221.294 27.0439C220.641 26.965 220.641 26.9637 220.356 26.9797C220.153 26.9904 219.946 27.0038 219.74 27.0105C219.682 27.0131 219.612 27.0011 219.558 26.9904C219.128 26.9089 219.128 26.9076 218.818 26.9236C218.545 26.9383 218.272 26.953 217.999 26.9677C217.83 26.9316 217.656 26.8969 217.487 26.8608C217.148 26.8782 216.801 26.8915 216.466 26.9156C216.309 26.9263 216.206 26.9223 216.086 26.8889C215.937 26.8488 215.788 26.802 215.54 26.8247C215.275 26.8488 214.994 26.8514 214.726 26.8715C214.403 26.8955 214.271 26.7739 214.011 26.7753C213.738 26.7766 213.457 26.794 213.192 26.818C212.886 26.8461 212.671 26.8033 212.452 26.7459C212.407 26.7339 212.328 26.7272 212.27 26.7298C211.518 26.7686 210.77 26.8073 210.018 26.8488C209.555 26.8741 209.555 26.8755 208.674 26.802C208.612 26.7966 208.546 26.7913 208.484 26.794C208.211 26.806 207.93 26.8154 207.666 26.8381C207.343 26.8661 207.165 26.794 206.938 26.7499C206.888 26.7405 206.81 26.7459 206.744 26.7485C206.537 26.7579 206.335 26.7699 206.128 26.7806C205.855 26.7953 205.582 26.81 205.309 26.8247C205.14 26.79 204.966 26.7539 204.797 26.7191C204.458 26.7365 204.111 26.7459 203.776 26.7739C203.52 26.7953 203.4 26.7392 203.23 26.7071C203.172 26.6964 203.11 26.6737 203.057 26.6751C202.441 26.7045 201.825 26.7352 201.213 26.7726C200.961 26.7886 200.845 26.7285 200.676 26.6978C200.618 26.6884 200.552 26.6711 200.498 26.6737C200.089 26.6924 199.68 26.7151 199.27 26.7379C199.039 26.7512 199.039 26.7512 198.535 26.6684C198.477 26.659 198.411 26.6497 198.353 26.6523C197.055 26.7191 195.761 26.79 194.463 26.8568C194.331 26.8635 194.211 26.8434 194.108 26.8073C194 26.7713 193.88 26.7526 193.748 26.7592C193.202 26.7873 192.653 26.8127 192.111 26.8474C191.888 26.8621 191.71 26.8447 191.557 26.798C191.441 26.7632 191.334 26.7499 191.189 26.7579C190.916 26.7739 190.644 26.7873 190.371 26.802C190.098 26.8167 189.825 26.8314 189.552 26.8461C189.28 26.8608 189.003 26.8688 188.734 26.8915C188.403 26.9196 188.242 26.8367 188.015 26.7953C187.606 26.8154 187.196 26.8354 186.791 26.8568C186.245 26.8848 185.7 26.9156 185.154 26.9423C185.105 26.945 185.043 26.9209 184.985 26.9089C184.815 26.8755 184.691 26.8287 184.439 26.8434C183.216 26.9142 181.984 26.9744 180.756 27.0439C180.5 27.0586 180.388 27.0011 180.215 26.9704C180.157 26.961 180.091 26.9423 180.037 26.945C179.355 26.9784 178.673 27.0158 177.991 27.0519C177.714 27.0666 177.714 27.0666 177.251 26.9837C177.197 26.9744 177.127 26.9623 177.069 26.965C176.18 27.0104 175.296 27.0585 174.407 27.1053C174.275 27.112 174.155 27.0933 174.047 27.0572C173.944 27.0211 173.82 27.0011 173.692 27.0078C172.873 27.0505 172.051 27.092 171.237 27.1387C171.018 27.1521 170.836 27.1401 170.679 27.092C170.567 27.0572 170.455 27.0425 170.315 27.0505C169.087 27.116 167.859 27.1788 166.632 27.2483C166.396 27.2617 166.231 27.2363 166.082 27.1922C165.962 27.1574 165.859 27.1507 165.71 27.1561C165.553 27.1628 165.458 27.1775 165.371 27.2176C165.26 27.2697 165.189 27.3351 164.925 27.3392C164.652 27.3432 164.375 27.3592 164.106 27.3819C163.85 27.4046 163.73 27.3445 163.569 27.3084C163.449 27.283 163.337 27.279 163.184 27.2911C163.044 27.3017 162.957 27.3244 162.874 27.3672C162.693 27.4581 162.676 27.4581 162.453 27.4006C162.333 27.3699 162.225 27.3458 162.093 27.3512C161.548 27.3779 161.002 27.4073 160.456 27.438C160.142 27.4554 160.138 27.4581 159.902 27.3913C159.787 27.3579 159.675 27.3418 159.539 27.3498C158.038 27.43 156.538 27.5075 155.037 27.5917C154.806 27.6051 154.649 27.577 154.483 27.5369C154.43 27.5235 154.376 27.5048 154.314 27.4995C154.252 27.4941 154.182 27.4995 154.115 27.5022C153.024 27.5596 151.929 27.6144 150.842 27.6786C150.594 27.6933 150.461 27.6505 150.292 27.6158C150.234 27.6037 150.184 27.585 150.122 27.5797C150.06 27.5757 149.986 27.585 149.92 27.589C148.829 27.6465 147.733 27.7013 146.646 27.7654C146.386 27.7801 146.274 27.724 146.105 27.6946C146.047 27.6839 145.985 27.6638 145.931 27.6665C145.588 27.6812 145.249 27.7013 144.906 27.7186C144.087 27.7627 143.269 27.8042 142.45 27.8496C142.136 27.867 142 27.748 141.735 27.7534C141.392 27.7601 141.053 27.7868 140.71 27.8055C140.437 27.8202 140.165 27.8336 139.892 27.8496C139.623 27.8643 139.623 27.8643 138.954 27.7868C138.896 27.7801 138.825 27.7707 138.768 27.7734C137.813 27.8229 136.854 27.8723 135.903 27.9257C135.684 27.9378 135.502 27.9311 135.345 27.8817C135.233 27.8469 135.118 27.8295 134.981 27.8376C133.547 27.9137 132.117 27.9899 130.682 28.0647C130.629 28.0674 130.558 28.054 130.505 28.0433C130.389 28.0193 130.277 27.9912 130.166 27.9658C130.083 27.9966 129.975 28.0246 129.922 28.0594C129.847 28.1061 129.748 28.1195 129.591 28.1275C129.434 28.1355 129.335 28.1329 129.211 28.0981C129.062 28.0554 128.909 28.0219 128.665 28.0353C127.165 28.1195 125.664 28.1957 124.164 28.2785C123.916 28.2919 123.8 28.2331 123.626 28.2023C123.568 28.193 123.502 28.1783 123.449 28.181C122.833 28.2117 122.221 28.2451 121.605 28.2772C119.898 28.368 118.191 28.4549 116.488 28.5511C116.178 28.5685 115.967 28.5351 115.748 28.4776C115.702 28.4656 115.624 28.4589 115.566 28.4616C113.177 28.5872 110.788 28.7141 108.402 28.841C108.274 28.8477 108.15 28.8263 108.047 28.7916C107.939 28.7555 107.82 28.7382 107.687 28.7448C106.596 28.8023 105.505 28.8598 104.414 28.9186C104.141 28.9333 104.137 28.9346 103.856 28.8704C103.798 28.8571 103.736 28.8317 103.69 28.8344C103.595 28.8411 103.504 28.8744 103.438 28.9199C103.372 28.968 103.269 28.9813 103.116 28.9907C102.959 29.0001 102.855 28.9961 102.735 28.964C102.582 28.9239 102.442 28.8851 102.194 28.8985C99.0565 29.0695 95.9191 29.2339 92.7817 29.4036C92.5296 29.4169 92.4138 29.3608 92.2402 29.3301C92.1823 29.3207 92.1245 29.3074 92.0625 29.3047C91.9964 29.302 91.9261 29.3101 91.86 29.3141C86.7426 29.5853 81.6253 29.8579 76.508 30.1292C76.2021 30.1452 76.2062 30.1452 75.8714 30.2681C75.8301 30.2828 75.7763 30.3029 75.7184 30.3055C74.1518 30.391 72.5811 30.4739 71.0103 30.5567C70.3283 30.5928 69.6463 30.6302 68.9642 30.665C68.7204 30.677 68.7204 30.677 68.1375 30.8213C68.0879 30.8333 68.03 30.8494 67.9721 30.852C65.244 30.9977 62.5158 31.1433 59.7835 31.2863C59.5686 31.297 59.395 31.3211 59.2958 31.3852C59.2255 31.4306 59.1346 31.4573 58.9982 31.4654C57.0885 31.5669 55.1789 31.6698 53.265 31.7687C53.0377 31.7807 52.9012 31.8181 52.7896 31.8742C52.7524 31.893 52.7193 31.9143 52.6656 31.9277C52.616 31.9397 52.5416 31.9437 52.4796 31.9477C50.8427 32.0346 49.2059 32.1241 47.5648 32.207C47.321 32.219 47.2217 32.2684 47.1018 32.3205C47.0605 32.3379 47.0315 32.362 46.9778 32.374C46.9241 32.3847 46.8455 32.3847 46.7794 32.3873C45.4153 32.4595 44.0513 32.533 42.6872 32.6051C42.4227 32.5985 42.3648 32.676 42.2366 32.7227C42.1912 32.7388 42.1582 32.7601 42.1044 32.7708C42.0466 32.7815 41.9721 32.7802 41.9018 32.7829C40.8105 32.8403 39.7193 32.9018 38.6239 32.9552C38.3718 32.9673 38.3221 33.0354 38.1857 33.0822C38.1403 33.0969 38.0948 33.1196 38.0411 33.1236C37.3591 33.1623 36.6771 33.1984 35.995 33.2332C35.7677 33.2452 35.7677 33.2439 35.3667 33.3761C35.3212 33.3908 35.2675 33.4069 35.2096 33.4109C34.1886 33.467 33.1635 33.5204 32.1384 33.5752C32.0061 33.5819 31.9152 33.614 31.8491 33.6594C31.7829 33.7048 31.6879 33.7342 31.5556 33.7409C30.7371 33.785 29.9186 33.8304 29.1002 33.8705C28.8728 33.8812 28.7241 33.9146 28.6249 33.9748C28.5505 34.0202 28.4595 34.0429 28.3148 34.0509C27.4964 34.0937 26.678 34.1405 25.8554 34.1779C25.6157 34.1886 25.4916 34.234 25.3924 34.2901C25.3139 34.3355 25.2229 34.3516 25.07 34.3596C23.5695 34.4371 22.0649 34.5146 20.5686 34.6001C20.3164 34.6148 20.1883 34.568 20.0229 34.5346C19.7873 34.4879 19.5683 34.4371 19.5683 34.3329C19.5683 34.3168 19.498 34.2981 19.4484 34.2848C19.0805 34.1845 19.0805 34.1845 19.0226 34.0776C18.9896 34.0122 18.9524 33.9454 18.9234 33.8786C18.8697 33.769 18.7374 33.7409 18.3571 33.761C18.2207 33.7676 18.0843 33.777 17.9479 33.7823C17.7453 33.7917 17.5924 33.7476 17.5552 33.6674C17.5345 33.6233 17.5098 33.5792 17.4891 33.5351C17.6958 33.5245 17.6916 33.5231 18.0553 33.3614C18.2083 33.2933 18.2083 33.2933 17.9149 33.2251C17.8033 33.1998 17.6958 33.1717 17.5759 33.1476C17.5221 33.1369 17.4519 33.1303 17.394 33.1329C17.0509 33.149 16.712 33.1677 16.3731 33.1864C15.8274 33.2158 15.8274 33.2158 15.2735 33.0795C15.228 33.0688 15.1577 33.0488 15.166 33.0381C15.2115 32.9886 15.323 32.9672 15.4636 32.9619C15.6703 32.9539 15.8728 32.9405 16.0753 32.9298C16.2118 32.9232 16.3482 32.9151 16.4846 32.9085C16.6127 32.8577 16.745 32.8083 16.8649 32.7561C17.0551 32.676 17.055 32.6733 16.7946 32.6172C16.6292 32.5798 16.4515 32.5463 16.282 32.5116C16.0795 32.5223 15.8728 32.5343 15.6703 32.5437C15.414 32.5557 15.3106 32.5303 15.2445 32.4435C15.1866 32.3673 15.2569 32.3018 15.4553 32.2858C15.6579 32.2698 15.8481 32.2591 15.9514 32.1909C16.0506 32.1255 16.2242 32.1001 16.4392 32.0947C16.5756 32.0907 16.712 32.0814 16.8484 32.0733C17.0261 32.0626 17.1212 31.9945 17.084 31.9183C17.0633 31.8689 17.022 31.8275 16.8608 31.8168C16.1457 31.77 16.1374 31.7713 15.7819 31.6805C15.7488 31.6725 15.7241 31.6484 15.7365 31.6364C15.7571 31.6164 15.8026 31.587 15.8522 31.5829C16.3276 31.5535 16.8029 31.5268 17.2783 31.5068C17.4354 31.5001 17.5511 31.4907 17.6048 31.4413C17.6792 31.3732 17.6462 31.3104 17.5015 31.2636C17.456 31.2489 17.3816 31.2302 17.332 31.2315C16.7863 31.2556 16.2449 31.2863 15.6992 31.3104C15.6496 31.313 15.5587 31.2903 15.5381 31.273C15.4967 31.2409 15.5587 31.1981 15.7034 31.1834C15.8935 31.1634 16.0878 31.162 16.2159 31.0952C16.3937 31.0004 16.6127 30.9135 16.8111 30.8227C16.8442 30.8066 16.898 30.7759 16.8856 30.7732C16.7823 30.7438 16.6624 30.7211 16.5549 30.693C16.373 30.6463 16.373 30.5808 16.4143 30.518C16.4474 30.4672 16.5714 30.4472 16.7243 30.4472C16.7905 30.4472 16.8731 30.4472 16.9269 30.4351C17.0674 30.4058 17.1129 30.3683 17.0426 30.3403C17.0013 30.3242 16.9269 30.3015 16.8773 30.3042C15.9928 30.3483 15.104 30.391 14.2235 30.4458C13.9631 30.4619 13.8433 30.4111 13.6862 30.375C13.5664 30.3469 13.4547 30.3363 13.3059 30.3563C13.1653 30.375 13.029 30.3643 12.9422 30.3202C12.8719 30.2842 12.9959 30.2534 13.3307 30.2187C13.3927 30.212 13.463 30.208 13.5084 30.1946C13.9879 30.0503 13.9879 30.049 14.3186 30.0303C14.641 30.0129 14.6411 30.0116 14.8106 29.9341C14.8891 29.898 14.9758 29.8619 15.0502 29.8245C15.0792 29.8098 15.1288 29.7831 15.1123 29.7751C15.0214 29.7336 14.8973 29.7243 14.7526 29.7336C14.4302 29.7564 14.05 29.7376 13.8805 29.8646C13.8144 29.9127 13.711 29.9261 13.5622 29.9341C12.0659 30.0116 10.5695 30.0944 9.06899 30.1692C8.82511 30.1813 8.71357 30.2307 8.6185 30.2855C8.53583 30.3309 8.44487 30.3443 8.2878 30.3523C8.13072 30.3603 8.00665 30.3643 7.91572 30.3202C7.86198 30.2935 7.90746 30.2561 8.03147 30.2187C8.20921 30.1652 8.17613 30.0984 8.11826 30.0356C8.07692 29.9942 7.94878 29.9648 7.81238 29.9675C7.60983 29.9728 7.41561 29.9875 7.24613 29.9341C7.14693 29.9033 7.0229 29.8819 6.91129 29.8552C6.69635 29.8004 6.48139 29.7443 6.17964 29.7804C5.97297 29.767 5.82829 29.7189 5.66295 29.6815C5.386 29.6201 5.3612 29.6107 5.55961 29.5452C5.78282 29.4717 5.60918 29.3755 5.73319 29.3034C5.86546 29.2259 6.0474 29.1577 6.20861 29.0856C6.24994 29.0669 6.28716 29.0495 6.3285 29.0308C6.23342 29.0041 6.14663 28.9707 6.03503 28.952C5.89035 28.9279 5.81595 28.8985 5.82421 28.8157C5.79528 28.8036 5.80759 28.8344 5.84066 28.8424C5.87787 28.8504 5.96887 28.8437 6.01434 28.8344C6.13008 28.809 6.18789 28.7756 6.15895 28.7475C6.14242 28.7328 6.06394 28.7141 6.01434 28.7141C5.9234 28.7141 5.84488 28.7435 5.82008 28.8157C5.35712 28.8705 4.87755 28.8972 4.39806 28.9186C4.34845 28.9212 4.28649 28.8945 4.22862 28.8811C4.03847 28.8357 4.03845 28.837 3.48042 28.8237C3.42255 28.8223 3.34405 28.8036 3.31512 28.7849C3.19525 28.7034 3.19941 28.6139 3.14154 28.527C3.24901 28.4709 3.3564 28.4161 3.46801 28.3614C3.69122 28.2504 3.98063 28.1529 4.15424 28.0313C4.11704 27.9658 4.06743 27.9004 4.24931 27.8469C4.766 27.7801 4.7619 27.7801 4.90244 27.716C5.30339 27.5342 5.70019 27.3512 6.11768 27.1721C6.22929 27.1254 6.2293 27.1 6.03089 27.0799C5.96889 27.0746 5.90266 27.0733 5.83653 27.0759C5.62985 27.0853 5.42317 27.1093 5.22063 27.104C5.01809 27.1 4.86928 27.0412 4.70394 27.0051C4.53446 26.9677 4.36499 26.9289 4.19552 26.8902C4.00124 26.8942 3.807 26.9316 3.61272 26.8715C3.46391 26.8247 3.27792 26.7913 3.10844 26.7526C3.23658 26.651 3.47636 26.5735 3.66237 26.484C3.83185 26.4025 3.83589 26.4038 4.29058 26.341C4.50553 26.3116 4.57993 26.1606 4.39806 26.1165C4.17898 26.0631 3.94755 26.0136 3.72434 25.9629C3.53006 25.9669 3.33169 26.003 3.14568 25.9428C3.001 25.8974 2.83563 25.8667 2.59588 25.884C2.1908 25.9134 1.77745 25.9281 1.36823 25.9522C1.22769 25.9602 1.0747 25.9548 1.0127 25.9094C0.971365 25.8773 1.09125 25.8333 1.22765 25.8239C1.43433 25.8105 1.62032 25.7945 1.72366 25.7277C1.82286 25.6609 2.00472 25.6408 2.21967 25.6315C2.27754 25.6288 2.34372 25.6128 2.37266 25.5967C2.52146 25.5192 2.68682 25.4524 3.0051 25.4551C3.13738 25.4284 3.2076 25.395 3.16627 25.3629C3.14146 25.3455 3.0547 25.3228 3.0051 25.3255C2.66202 25.3389 2.31894 25.3522 1.98413 25.3763C1.82705 25.387 1.70711 25.3896 1.60791 25.3495C1.53764 25.3228 1.57484 25.2867 1.70711 25.248C1.82285 25.2146 1.85595 25.1758 1.84769 25.1304C1.82702 25.0248 1.70299 24.9941 1.30617 25.0008C1.02095 25.0061 0.950677 24.9888 0.888674 24.8979C0.872139 24.8765 0.830877 24.8471 0.859811 24.8324C1.03755 24.7416 1.1533 24.6293 1.48812 24.5866C1.62039 24.5705 1.76088 24.5705 1.84355 24.5358C1.92622 24.5011 2.00066 24.461 2.08746 24.4276C2.19494 24.3875 2.26927 24.3501 2.21967 24.3247C2.13699 24.2792 2.00477 24.2752 1.85182 24.2913C1.71955 24.3046 1.57901 24.306 1.44261 24.314C1.19873 24.3287 1.00036 24.2939 0.971426 24.2351C0.892888 24.0801 0.810193 23.9265 0.739922 23.7715C0.731655 23.7528 0.752266 23.7287 0.785335 23.7127C0.901074 23.6566 1.02513 23.6031 1.145 23.5483C1.28554 23.4855 1.50879 23.4976 1.69894 23.4855C1.96762 23.4682 1.96752 23.4695 2.32714 23.3412C2.46768 23.2904 2.71157 23.3105 2.85625 23.2651C2.90172 23.2504 2.97199 23.2263 2.95959 23.2129C2.94305 23.1956 2.86043 23.1822 2.79842 23.1742C2.74055 23.1662 2.6703 23.1622 2.6083 23.1662C1.85599 23.2049 1.10784 23.2464 0.35553 23.2838C0.22739 23.2904 0.086845 23.2611 0.0413759 23.2196C-0.00409319 23.1809 0.00826711 23.1341 0 23.09C0.119873 23.0352 0.256228 22.9845 0.359567 22.9257C0.438104 22.8802 0.529059 22.8602 0.686134 22.8575C0.892811 22.8535 1.09538 22.8375 1.32685 22.8254C1.75674 22.6304 2.17834 22.4259 2.6413 22.2308C2.82731 22.152 2.78191 22.0718 2.81911 21.9876C2.85631 21.9101 3.13325 21.9222 3.31926 21.8995C3.46806 21.8808 3.5176 21.838 3.45973 21.8086C3.42666 21.7912 3.3523 21.7712 3.29443 21.7712C3.15802 21.7712 3.02162 21.7832 2.88521 21.7899C2.74881 21.7966 2.59174 21.7926 2.48013 21.8153C2.37266 21.8367 2.30235 21.8821 2.23208 21.9208C2.15354 21.9636 2.05027 21.9783 1.8932 21.981C1.69066 21.9836 1.48812 21.9957 1.28558 22.005C1.06237 21.9529 0.83084 21.9021 0.615895 21.8473C0.57456 21.8367 0.566248 21.8059 0.570382 21.7859C0.578649 21.7338 0.516662 21.7017 0.380255 21.6763C0.264515 21.6549 0.169435 21.6242 0.0619629 21.5975C0.144634 21.5614 0.235604 21.5266 0.301741 21.4879C0.446416 21.4064 0.628312 21.3476 0.942462 21.3503C1.06647 21.2982 1.16565 21.234 1.32685 21.198C1.4798 21.1632 1.74022 21.1979 1.85596 21.1191C1.91383 21.0804 2.00068 21.0363 2.11229 21.0202C2.29003 20.9948 2.52151 21.0082 2.62485 20.9334C2.68685 20.8906 2.77775 20.8519 2.89763 20.8412C3.03403 20.8292 3.17454 20.8265 3.27374 20.8011C3.32748 20.7877 3.38536 20.7664 3.38536 20.7477C3.38536 20.7356 3.30275 20.7169 3.24488 20.7089C3.19114 20.6995 3.12079 20.6929 3.05879 20.6955C2.85211 20.7036 2.64957 20.7182 2.44289 20.7263C2.38502 20.7289 2.31891 20.7196 2.2569 20.7116C2.07503 20.6902 2.0874 20.6635 2.23208 20.6154C2.37675 20.5686 2.48015 20.5085 2.60002 20.4537C2.7323 20.4443 2.89761 20.4483 2.98855 20.4229C3.14149 20.3815 3.24894 20.3214 3.37294 20.2693C3.50935 20.2613 3.64988 20.2586 3.77802 20.2439C3.83176 20.2386 3.85658 20.2092 3.90205 20.1918C3.98472 20.1584 4.05505 20.1103 4.16665 20.0942C4.34853 20.0702 4.57174 20.0795 4.67921 20.006C4.74121 19.9633 4.83625 19.9179 4.95199 19.9152C5.27441 19.9099 5.41082 19.8363 5.57616 19.7669C5.70017 19.7148 5.96472 19.7415 6.10113 19.6894C6.19207 19.656 6.25824 19.6145 6.34918 19.5825C6.38639 19.5691 6.46489 19.5624 6.5269 19.5584C6.86585 19.5384 7.20892 19.5237 7.54787 19.5023C7.60161 19.4983 7.65125 19.4783 7.69259 19.4622C7.77939 19.4275 7.83307 19.3794 7.94054 19.3567C8.04801 19.3339 8.20093 19.3339 8.33321 19.3273C8.75896 19.3072 8.79206 19.3126 8.98634 19.199C9.14342 19.1068 9.52789 19.1723 9.65603 19.0707C9.73043 19.0119 9.86678 18.9638 10.1107 18.9571C10.4537 18.9478 10.7927 18.9224 11.1358 18.905C11.4417 18.889 11.4375 18.889 11.7682 18.7647C11.917 18.7086 12.1361 18.7166 12.3304 18.7059C12.5371 18.6952 12.7272 18.6792 12.8264 18.6124C12.9256 18.5469 13.1075 18.5255 13.3183 18.5162C13.5126 18.5068 13.7317 18.5135 13.8846 18.4601C14.2567 18.3318 14.2525 18.3304 14.513 18.3171C14.9222 18.2957 15.3314 18.2743 15.7406 18.2516C16.0134 18.2369 16.2986 18.2342 16.5549 18.2048C16.7409 18.1835 16.8236 18.1086 16.9434 18.0565C17.2824 18.0365 17.6213 18.0164 17.9603 17.9977C18.4356 17.971 18.9151 17.947 19.3946 17.9216C19.6013 17.8708 19.6303 17.7586 19.9775 17.7532C20.1842 17.7505 20.3867 17.7332 20.5934 17.7225C20.9365 17.7038 21.2754 17.6797 21.6185 17.6704C21.8789 17.6637 21.9243 17.5915 22.0607 17.5461C22.1062 17.5301 22.1476 17.5073 22.2013 17.5033C22.7387 17.4659 23.2925 17.4579 23.8175 17.4031C23.8712 17.3978 23.9208 17.3697 23.9332 17.3497C23.9415 17.339 23.8712 17.3189 23.8258 17.3096C23.772 17.2989 23.7018 17.2882 23.6439 17.2909C21.9367 17.3804 20.2296 17.4713 18.5225 17.5608C18.2827 17.5742 18.2827 17.5728 17.6999 17.7198C17.6503 17.7318 17.5924 17.7452 17.5304 17.7492C17.2576 17.7652 16.9806 17.7746 16.7119 17.7946C16.4929 17.8107 16.311 17.7946 16.154 17.7465C16.0424 17.7118 15.9266 17.7011 15.786 17.7038C15.6289 17.7078 15.5257 17.7225 15.4347 17.7586C15.3149 17.808 15.2528 17.8721 15.0007 17.8855C13.8392 17.9429 12.6776 18.0071 11.5202 18.0685C11.359 18.0498 11.2804 18.0218 11.3218 17.9884C11.3466 17.9683 11.3962 17.9416 11.4458 17.9389C11.9211 17.9109 12.4006 17.8868 12.876 17.8601C12.9421 17.8561 13.033 17.8588 13.0702 17.8454C13.2521 17.7853 13.3183 17.6877 13.6614 17.681C13.8598 17.677 14.0623 17.657 14.2525 17.6383C14.3062 17.6329 14.3558 17.6049 14.3682 17.5848C14.3724 17.5742 14.3062 17.5541 14.2566 17.5448C14.0747 17.506 13.864 17.5528 13.6821 17.5261C13.6201 17.5167 13.5332 17.5033 13.5208 17.4873C13.5126 17.4726 13.5828 17.4485 13.6325 17.4339C13.6779 17.4205 13.7399 17.4085 13.8019 17.4045C14.3475 17.3737 14.8932 17.3417 15.4389 17.3176C15.6621 17.3082 15.8191 17.2748 15.9183 17.2134C15.9927 17.1679 16.0837 17.1439 16.2242 17.1372C17.179 17.0878 18.1339 17.033 19.0929 16.9876C19.3326 16.9769 19.4567 16.9328 19.5559 16.8753C19.6344 16.8299 19.7254 16.8139 19.8783 16.8058C21.2465 16.7364 22.6064 16.6589 23.9746 16.5921C24.2268 16.58 24.3012 16.5226 24.4293 16.4731C24.4748 16.4558 24.5037 16.4344 24.5615 16.4237C24.6194 16.413 24.6938 16.4143 24.7641 16.4117C25.8553 16.3542 26.9467 16.2927 28.0421 16.2393C28.2983 16.2273 28.3479 16.1604 28.4801 16.1137C28.5256 16.099 28.567 16.0749 28.6207 16.0709C29.4392 16.0255 30.2576 15.9827 31.076 15.9386C31.6217 15.9092 32.1673 15.8798 32.7129 15.8518C32.9816 15.8384 32.9816 15.8371 33.3453 15.7101C33.3867 15.6954 33.4446 15.6781 33.4983 15.6741C35.0691 15.5885 36.6357 15.5071 38.2064 15.4229C38.3387 15.4162 38.4337 15.3854 38.4999 15.34C38.566 15.2946 38.6612 15.2638 38.7893 15.2572C40.017 15.1904 41.2446 15.1249 42.4764 15.0621C42.6996 15.0514 42.8567 15.0193 42.9559 14.9592C43.0303 14.9138 43.1212 14.8897 43.2617 14.883C44.4894 14.8189 45.7171 14.7507 46.9489 14.6893C47.1845 14.6773 47.3002 14.6318 47.416 14.5784C47.4573 14.5597 47.4904 14.5289 47.54 14.5263C48.1518 14.4889 48.7594 14.4501 49.3753 14.4247C49.6316 14.414 49.7184 14.3579 49.8217 14.3044C49.9044 14.2617 49.9995 14.247 50.1566 14.2417C50.4997 14.2296 50.8386 14.2069 51.1734 14.1842C51.223 14.1802 51.285 14.1508 51.2892 14.1321C51.2974 14.0973 51.2023 14.0733 51.0453 14.0613C49.4084 14.1481 47.7674 14.235 46.1305 14.3218C45.8618 14.3365 45.8618 14.3365 45.4981 14.4635C45.4567 14.4782 45.3988 14.4955 45.3409 14.4995C43.7702 14.5837 42.2036 14.6666 40.6329 14.7508C40.5006 14.7574 40.4055 14.7882 40.3394 14.8336C40.2733 14.879 40.1781 14.9098 40.05 14.9164C38.5495 14.9966 37.049 15.0781 35.5444 15.1543C35.3212 15.165 35.1642 15.1957 35.065 15.2572C34.9906 15.3026 34.8996 15.3267 34.7591 15.3333C33.3247 15.4082 31.8945 15.487 30.456 15.5591C30.3113 15.5658 30.2039 15.5271 30.2122 15.491C30.2163 15.4723 30.2782 15.4416 30.3278 15.4389C31.076 15.3948 31.8201 15.3494 32.5724 15.316C32.8246 15.3053 32.8989 15.2465 33.0271 15.197C33.0684 15.1797 33.1015 15.157 33.1552 15.1476C33.2131 15.1369 33.2875 15.1383 33.3578 15.1356C35.1311 15.0407 36.9044 14.9445 38.6818 14.855C38.9381 14.8416 38.9876 14.7761 39.1199 14.7294C39.1654 14.7133 39.2067 14.6893 39.2605 14.6866C39.8061 14.6546 40.3517 14.6265 40.8974 14.5984C41.8522 14.5476 42.807 14.4969 43.766 14.4461C44.043 14.4314 44.043 14.4314 44.3985 14.3058C44.4398 14.2911 44.4977 14.2724 44.5515 14.2697C47.0771 14.1348 49.6027 13.9998 52.1283 13.8662C52.2606 13.8595 52.3556 13.8288 52.4218 13.7833C52.4879 13.7392 52.5829 13.7072 52.7111 13.6992C56.1254 13.5174 59.5356 13.3357 62.9499 13.1567C63.1731 13.1446 63.3302 13.1166 63.4294 13.0538C63.4996 13.0083 63.5947 12.9843 63.7352 12.9763C67.4885 12.7772 71.2418 12.5781 74.9992 12.3777C77.5248 12.244 80.0504 12.1077 82.576 11.9768C82.8075 11.9648 82.9315 11.9233 83.0472 11.8685C83.0844 11.8498 83.1216 11.8191 83.1712 11.8164C83.7127 11.783 84.2542 11.7523 84.7957 11.7216C84.9652 11.7576 85.1346 11.7924 85.3041 11.8285C85.4322 11.7777 85.5563 11.7256 85.6845 11.6748C86.5029 11.6361 87.3089 11.5759 88.1356 11.5572C88.1894 11.5559 88.2472 11.5813 88.3051 11.5946C88.6895 11.6788 88.9086 11.6721 89.1525 11.5599C89.2393 11.5198 89.3137 11.4837 89.4459 11.477C89.8551 11.453 90.2686 11.437 90.6737 11.4089C90.8928 11.3942 91.0746 11.4076 91.2316 11.4557C91.3433 11.4904 91.459 11.5051 91.5955 11.4971C92.3478 11.457 93.0959 11.4183 93.8482 11.3755C93.902 11.3728 93.9515 11.3501 93.9928 11.3341C94.0796 11.2993 94.1541 11.2619 94.2368 11.2258C94.3484 11.2486 94.4724 11.2659 94.5633 11.2953C94.6791 11.3301 94.7865 11.3301 94.9436 11.3207C97.9445 11.159 100.95 11.0014 103.951 10.8383C104.207 10.825 104.319 10.8811 104.492 10.9105C104.55 10.9212 104.608 10.9345 104.67 10.9372C104.736 10.9399 104.806 10.9319 104.872 10.9279C107.125 10.8076 109.378 10.6887 111.631 10.5684C111.928 10.5524 111.928 10.5524 112.371 10.6352C112.424 10.6459 112.495 10.6579 112.553 10.6539C113.578 10.6018 114.603 10.5457 115.624 10.4923C115.756 10.4856 115.868 10.507 115.988 10.5377C116.223 10.5978 116.24 10.5978 116.413 10.5096C116.496 10.4682 116.583 10.4428 116.719 10.4308C116.868 10.4174 116.988 10.4214 117.104 10.4455C117.269 10.4789 117.389 10.535 117.641 10.5203C118.732 10.4575 119.828 10.4054 120.915 10.3413C121.163 10.3266 121.295 10.372 121.46 10.4054C121.518 10.4174 121.572 10.4361 121.634 10.4402C121.696 10.4442 121.77 10.4348 121.836 10.4308C123.201 10.3586 124.569 10.2878 125.929 10.2103C126.185 10.1956 126.297 10.2531 126.47 10.2825C126.528 10.2932 126.594 10.3119 126.648 10.3092C127.466 10.2678 128.289 10.2237 129.107 10.1796C129.401 10.1635 129.401 10.1649 129.847 10.2464C129.901 10.2571 129.971 10.2678 130.029 10.2651C130.984 10.2157 131.943 10.1649 132.898 10.1141C133.191 10.0981 133.191 10.0981 134.039 10.1676C134.101 10.1729 134.167 10.1809 134.229 10.1783C135.32 10.1208 136.416 10.0647 137.507 10.0032C137.726 9.99118 137.908 10.0019 138.065 10.05C138.176 10.0847 138.292 10.0994 138.429 10.0914C139.656 10.0259 140.888 9.96313 142.112 9.89365C142.347 9.88028 142.5 9.90967 142.665 9.94842C142.719 9.96178 142.773 9.98049 142.835 9.98584C142.897 9.99118 142.967 9.98583 143.033 9.98182C144.261 9.91635 145.493 9.85489 146.716 9.78407C146.964 9.76937 147.097 9.8148 147.262 9.8482C147.32 9.86023 147.382 9.88428 147.431 9.88295C147.911 9.86023 148.39 9.8402 148.866 9.80679C149.122 9.78808 149.234 9.84954 149.407 9.87893C149.465 9.88829 149.531 9.90834 149.585 9.90567C150.61 9.85356 151.635 9.79878 152.656 9.74265C152.801 9.73464 152.908 9.74665 153.024 9.78139C153.177 9.82816 153.355 9.84687 153.578 9.83217C154.053 9.80144 154.533 9.78006 155.012 9.75468C155.293 9.73998 155.293 9.73998 156.153 9.80947C156.215 9.81481 156.281 9.82282 156.343 9.82015C157.162 9.77739 157.984 9.73597 158.799 9.6892C159.018 9.67584 159.2 9.68786 159.357 9.73597C159.468 9.77071 159.58 9.78541 159.72 9.7774C160.473 9.73731 161.221 9.69722 161.973 9.65714C162.246 9.64244 162.519 9.61704 162.792 9.61704C162.99 9.61838 163.135 9.68251 163.313 9.71458C163.362 9.72394 163.445 9.71326 163.511 9.71059C164.466 9.65981 165.425 9.61304 166.376 9.55558C166.624 9.54088 166.756 9.58631 166.921 9.61972C166.979 9.63174 167.041 9.6558 167.091 9.65446C167.434 9.63976 167.773 9.61972 168.116 9.60235C168.525 9.58097 168.938 9.56493 169.343 9.53554C169.674 9.51148 169.798 9.62773 170.063 9.63174C170.265 9.63575 170.472 9.61304 170.674 9.60235C171.084 9.58097 171.493 9.55692 171.902 9.53821C172.047 9.53153 172.158 9.51014 172.204 9.46204C172.212 9.45268 172.142 9.43265 172.096 9.42062C171.547 9.28433 171.547 9.28432 170.993 9.31372C170.65 9.33243 170.311 9.35114 169.968 9.36717C169.91 9.36985 169.844 9.35916 169.786 9.35114C169.62 9.32842 169.637 9.3017 169.777 9.2536C169.918 9.2055 170.025 9.14671 170.145 9.09192C170.315 9.12666 170.48 9.16139 170.65 9.19613C170.786 9.18945 170.922 9.18145 171.059 9.17477C171.741 9.14003 172.423 9.10395 173.105 9.07188C173.155 9.0692 173.217 9.09593 173.274 9.10929C173.44 9.14804 173.589 9.18144 173.828 9.16674C174.44 9.12799 175.056 9.09993 175.668 9.06653C175.936 9.05183 175.936 9.05183 176.408 9.13467C176.461 9.14403 176.532 9.15472 176.59 9.15205C177.205 9.12131 177.817 9.08791 178.433 9.05584C178.565 9.04916 178.694 9.06653 178.789 9.10528C178.826 9.12132 178.818 9.14803 178.975 9.36717C179.462 9.54489 179.797 9.52619 180.136 9.51016C180.281 9.50348 180.409 9.49679 180.504 9.47006C180.554 9.45537 180.616 9.43398 180.616 9.41661C180.616 9.40325 180.525 9.38187 180.467 9.37919C180.058 9.35247 179.669 9.4086 179.268 9.42062C179.082 9.42597 178.921 9.3792 178.888 9.30304C178.88 9.28166 178.867 9.25894 178.855 9.23756C178.842 9.21619 178.834 9.19347 178.822 9.17209C178.661 9.16541 178.565 9.18946 178.495 9.23489C178.437 9.2723 178.355 9.31506 178.243 9.33511C178.131 9.35648 177.978 9.35248 177.842 9.35916C177.71 9.36585 177.565 9.38321 177.441 9.37386C177.317 9.36317 177.218 9.32441 177.102 9.30036C177.048 9.28834 176.982 9.27097 176.929 9.27364C176.453 9.29636 175.982 9.31907 175.511 9.34846C175.263 9.3645 175.139 9.30839 174.982 9.27364C174.858 9.24692 174.734 9.25359 174.713 9.31506C174.659 9.46204 174.849 9.5235 175.271 9.49544C175.618 9.47139 175.932 9.4674 176.205 9.55826C176.242 9.57028 176.329 9.57563 176.383 9.57295C176.722 9.55692 177.057 9.53687 177.396 9.52084C177.458 9.51817 177.524 9.5235 177.582 9.52885C178.425 9.601 178.425 9.60235 178.71 9.58631C178.847 9.5783 178.979 9.57161 178.966 9.36851C179.227 9.15071 179.64 9.13601 180.041 9.10394C180.302 9.0839 180.413 9.1427 180.583 9.17343C180.64 9.18412 180.702 9.20549 180.756 9.20282C181.645 9.15873 182.529 9.11195 183.414 9.06251C183.563 9.0545 183.67 9.06252 183.786 9.09726C183.935 9.14135 184.1 9.16942 184.336 9.15338C184.807 9.12131 185.287 9.10128 185.766 9.07455C186.01 9.06119 186.01 9.06118 186.502 9.14402C186.556 9.15337 186.626 9.16406 186.684 9.16139C187.163 9.13868 187.639 9.11062 188.114 9.08657C188.246 9.07989 188.366 9.0986 188.469 9.13467C188.573 9.17075 188.697 9.18946 188.825 9.18278C189.304 9.15872 189.78 9.13201 190.255 9.10796C190.313 9.10528 190.383 9.11464 190.437 9.12399C190.941 9.20684 190.941 9.20682 191.173 9.19346C191.512 9.17342 191.859 9.16407 192.194 9.13735C192.52 9.11063 192.69 9.18812 192.913 9.23088C193.525 9.20014 194.141 9.17476 194.748 9.13735C194.996 9.12131 195.129 9.16541 195.294 9.20015C195.352 9.21217 195.41 9.23756 195.463 9.23623C195.67 9.23088 195.873 9.21619 196.075 9.2055C196.278 9.19481 196.484 9.18412 196.687 9.17343C196.918 9.21218 197.071 9.30304 197.402 9.27231C197.6 9.2536 197.811 9.24959 198.014 9.2389C198.216 9.22821 198.423 9.21752 198.626 9.20683C198.762 9.20015 198.902 9.19614 199.035 9.18411C199.279 9.16407 199.399 9.22955 199.572 9.25895C199.63 9.2683 199.696 9.28433 199.75 9.28165C200.159 9.26295 200.572 9.24691 200.973 9.21618C201.283 9.19213 201.494 9.23222 201.713 9.28834C201.759 9.30037 201.837 9.30705 201.895 9.30437C202.375 9.28166 202.85 9.25359 203.325 9.22954C203.453 9.22286 203.578 9.24424 203.681 9.27898C203.788 9.31506 203.908 9.33244 204.04 9.32576C204.516 9.30171 204.995 9.27498 205.471 9.25092C205.529 9.24825 205.599 9.25894 205.653 9.26963C206.116 9.35248 206.116 9.35381 206.388 9.33778C206.454 9.33377 206.525 9.33109 206.591 9.32708C206.93 9.30837 207.281 9.3017 207.612 9.26963C207.992 9.23355 208.269 9.27899 208.538 9.35515C208.877 9.33912 209.224 9.32976 209.555 9.30304C209.803 9.28299 209.935 9.33377 210.1 9.36717C210.158 9.3792 210.22 9.40325 210.27 9.40058C210.749 9.37786 211.229 9.35783 211.7 9.32442C211.956 9.30571 212.068 9.36583 212.241 9.39657C212.299 9.40726 212.361 9.42597 212.415 9.4233C212.688 9.41261 212.961 9.39657 213.234 9.38187C213.552 9.3645 213.552 9.36583 213.973 9.44734C214.172 9.48609 214.37 9.45536 214.565 9.446C214.771 9.43531 214.965 9.4273 215.131 9.48208C215.234 9.51683 215.358 9.53821 215.486 9.53286C215.759 9.52084 216.036 9.50882 216.305 9.48877C216.52 9.47274 216.706 9.48342 216.863 9.53286C216.974 9.5676 217.09 9.58498 217.227 9.57697C217.838 9.5449 218.454 9.51148 219.066 9.48075C219.12 9.47807 219.194 9.49011 219.244 9.50213C219.359 9.52618 219.471 9.5529 219.583 9.57963C219.851 9.5676 220.128 9.56227 220.393 9.54356C220.674 9.52485 220.93 9.51817 221.149 9.59166C221.195 9.6077 221.261 9.6304 221.315 9.62906C221.521 9.62372 221.724 9.61036 221.926 9.59967C222.129 9.58898 222.336 9.57829 222.538 9.5676C222.774 9.60101 222.923 9.69721 223.253 9.66648C223.452 9.64777 223.662 9.64377 223.865 9.63308C224.068 9.62239 224.274 9.61036 224.477 9.60101C224.543 9.59834 224.617 9.59165 224.675 9.597C224.737 9.60234 224.791 9.62105 224.845 9.63441C225.01 9.67316 225.163 9.71192 225.399 9.6892C225.597 9.6705 225.808 9.66649 226.01 9.65446C226.287 9.63976 226.287 9.63976 226.746 9.72395C226.932 9.75869 227.143 9.71326 227.321 9.74265C227.441 9.7627 227.544 9.7961 227.66 9.81881C227.709 9.82816 227.788 9.83217 227.846 9.8295C228.118 9.81747 228.395 9.80545 228.664 9.78541C228.883 9.76937 229.065 9.7854 229.218 9.83351C229.33 9.86825 229.441 9.88296 229.582 9.87494C230.264 9.83752 230.946 9.80544 231.624 9.76402C231.855 9.74932 232.041 9.77205 232.169 9.82015C232.388 9.90299 232.698 9.80545 232.926 9.87226C233.066 9.91369 233.207 9.96179 233.463 9.94175C233.934 9.90701 234.414 9.88829 234.889 9.86424C235.059 9.90032 235.228 9.9364 235.402 9.97248C235.675 9.95778 235.947 9.94307 236.22 9.92971C236.423 9.91902 236.629 9.907 236.832 9.89764C236.898 9.89497 236.968 9.88962 237.03 9.89631C237.092 9.90299 237.142 9.92036 237.2 9.93372C237.485 9.9992 237.485 10.0005 237.956 9.97382C238.159 9.96179 238.353 9.95377 238.523 10.0072C238.68 10.0567 238.866 10.066 239.081 10.0513C239.486 10.0246 239.895 10.0045 240.308 9.98584C240.436 9.97916 240.556 10.0019 240.664 10.0366C240.825 10.0914 241.023 10.0861 241.226 10.0714C241.495 10.0526 241.759 10.0339 241.986 10.1088C242.032 10.1248 242.102 10.1475 242.152 10.1462C242.491 10.1355 242.834 10.1275 243.165 10.1021C243.495 10.0767 243.656 10.1595 243.884 10.1996C244.223 10.1823 244.566 10.1649 244.905 10.1475C244.971 10.1435 245.049 10.1315 245.107 10.1382C245.351 10.1662 245.492 10.2664 245.827 10.2357C246.021 10.2183 246.232 10.213 246.434 10.209C246.488 10.2077 246.558 10.2304 246.595 10.2477C246.616 10.2571 246.595 10.2825 246.571 10.2958C246.496 10.3332 246.405 10.368 246.339 10.4067C246.331 10.4121 246.409 10.4361 246.455 10.4468C246.566 10.4709 246.695 10.4669 246.843 10.4562C246.972 10.4468 247.104 10.4655 247.195 10.5056C247.232 10.5217 247.22 10.5484 247.141 10.6366C247.141 10.702 247.228 10.6726 247.257 10.6299C247.302 10.5684 247.215 10.5484 247.05 10.5818C246.934 10.6058 246.877 10.6406 246.905 10.6686C246.922 10.6833 247 10.702 247.141 10.6366C247.505 10.5564 247.778 10.5417 248.05 10.527C248.121 10.523 248.203 10.5096 248.253 10.5176C248.431 10.5497 248.596 10.5885 248.77 10.6245C248.968 10.6165 249.154 10.5965 249.348 10.6486C249.621 10.7221 249.634 10.7154 249.898 10.7007C250.035 10.6927 250.171 10.686 250.307 10.6793C250.444 10.6727 250.551 10.6927 250.671 10.7234C250.915 10.7862 250.936 10.7862 251.097 10.7007C251.192 10.6486 251.258 10.6312 251.378 10.6553C251.775 10.7368 251.779 10.7421 252.118 10.7181C252.399 10.698 252.663 10.6927 252.87 10.7689C253.011 10.8223 253.056 10.8103 253.168 10.7542C253.465 10.6058 253.602 10.6085 254.16 10.7154C254.42 10.7662 254.689 10.7114 254.953 10.7047C255.177 10.6994 255.334 10.7314 255.35 10.8156C255.363 10.8677 255.4 10.9051 255.549 10.9225C255.607 10.9292 255.677 10.9386 255.735 10.9359C256.078 10.9198 256.417 10.9011 256.76 10.8824C256.933 10.8731 257.029 10.8103 256.995 10.7274C256.958 10.6392 257.024 10.6072 257.272 10.5818C257.421 10.5671 257.541 10.5698 257.661 10.5938C257.793 10.6205 257.756 10.6446 257.64 10.6927C257.363 10.8103 257.396 10.8824 257.752 10.9639C257.876 10.992 257.975 11.0174 258.004 11.0588C258.021 11.0802 258.004 11.1083 258.041 11.1243C258.244 11.2138 258.525 11.2713 258.839 11.314C259.141 11.278 259.347 11.3381 259.579 11.3862C259.761 11.4236 259.976 11.3915 260.17 11.3782C260.389 11.3635 260.571 11.3742 260.728 11.4236C260.84 11.4583 260.955 11.4744 261.092 11.4677C261.365 11.453 261.642 11.4436 261.91 11.4223C262.142 11.4036 262.315 11.4303 262.46 11.4757C262.642 11.5332 262.844 11.4944 263.035 11.5024C263.291 11.5118 263.419 11.6307 263.754 11.5986C263.952 11.5799 264.159 11.5732 264.366 11.5679C264.419 11.5666 264.485 11.5893 264.531 11.6053C264.75 11.6788 265.006 11.6748 265.287 11.6534C265.482 11.6387 265.672 11.6254 265.862 11.6761C266.176 11.7617 266.523 11.8365 266.854 11.9153C266.899 11.9768 266.866 12.0489 267.102 12.085C267.226 12.1037 267.342 12.1318 267.437 12.1625C267.553 12.1986 267.66 12.208 267.809 12.1986C268.077 12.1799 268.359 12.1759 268.623 12.1518C268.867 12.1304 269.02 12.1746 269.169 12.216C269.289 12.2494 269.4 12.2654 269.545 12.2414C269.694 12.2186 269.801 12.2333 269.921 12.2694C270.091 12.3188 270.103 12.3135 270.665 12.3282C270.723 12.3295 270.793 12.3496 270.826 12.367C270.843 12.3763 270.806 12.403 270.777 12.4164C270.74 12.4324 270.682 12.4511 270.628 12.4551C270.016 12.4899 269.4 12.5206 268.788 12.5554C268.726 12.5594 268.66 12.5687 268.615 12.5821C268.565 12.5968 268.503 12.6168 268.503 12.6355C268.503 12.6489 268.586 12.6649 268.644 12.6743C268.826 12.705 269.041 12.6583 269.218 12.693C269.338 12.7157 269.437 12.7478 269.557 12.7691C269.607 12.7785 269.685 12.7772 269.747 12.7745C269.954 12.7651 270.157 12.7518 270.363 12.7438C270.421 12.7424 270.487 12.7558 270.541 12.7665C270.938 12.8467 270.938 12.8467 271.281 12.8293C271.417 12.8226 271.562 12.8026 271.69 12.8106C271.814 12.8186 271.922 12.8547 272.033 12.8774C272.265 12.9255 272.484 12.9723 272.5 13.0765C272.509 13.1166 272.645 13.1513 272.781 13.154C272.914 13.1567 273.054 13.142 273.191 13.1339C273.513 13.1179 273.513 13.1179 273.931 13.1994C274.046 13.2221 274.17 13.2248 274.319 13.2114C274.377 13.2061 274.447 13.2114 274.509 13.2181C274.712 13.2382 274.712 13.2636 274.58 13.3117C274.394 13.3825 274.41 13.3892 274.931 13.4493C275.129 13.472 275.282 13.5148 275.448 13.5522C275.716 13.6123 275.712 13.6123 275.534 13.6911C275.493 13.7085 275.456 13.7272 275.415 13.7459C275.295 13.798 275.2 13.8542 274.952 13.8595C274.679 13.8648 274.406 13.8862 274.133 13.9009C273.869 13.9156 273.798 13.9477 273.823 14.0385C273.852 14.1481 273.906 14.1601 274.381 14.1588C274.518 14.1588 274.637 14.1695 274.741 14.2056C274.691 14.2483 274.6 14.2817 274.468 14.2898C274.129 14.3098 273.786 14.3272 273.447 14.3445C273.174 14.3592 272.901 14.3739 272.629 14.3886C272.459 14.398 272.352 14.4675 272.397 14.545C272.422 14.5891 272.442 14.6332 272.463 14.6773C272.509 14.7654 272.595 14.7882 272.872 14.7842C272.943 14.7828 273.009 14.7721 273.075 14.7748C273.344 14.7842 273.472 14.8951 273.794 14.8723C274.063 14.8536 274.344 14.8496 274.609 14.8256C274.852 14.8042 274.989 14.8523 275.158 14.8884C275.216 14.9004 275.278 14.9258 275.328 14.9245C275.671 14.9098 276.014 14.8951 276.349 14.8697C276.506 14.859 276.601 14.867 276.725 14.8991C277.022 14.9766 277.031 14.9726 277.473 14.9485C277.795 14.9298 277.8 14.9325 278.213 15.014C278.329 15.0367 278.453 15.0367 278.602 15.026C278.796 15.0126 278.998 14.9913 279.201 15.0113C279.263 15.0167 279.341 15.0327 279.362 15.0501C279.375 15.0621 279.317 15.0915 279.267 15.1008C278.903 15.1703 278.478 15.1583 278.081 15.1864C277.957 15.1944 277.833 15.169 277.729 15.1329C277.622 15.0968 277.506 15.0821 277.366 15.0888C277.093 15.1035 276.816 15.1129 276.547 15.1342C276.316 15.153 276.154 15.1222 275.993 15.0808C275.939 15.0674 275.878 15.042 275.824 15.0434C275.212 15.0701 274.596 15.0968 273.989 15.1342C273.745 15.1503 273.604 15.1075 273.439 15.0714C273.381 15.0594 273.323 15.034 273.269 15.0354C273.063 15.0407 272.86 15.0554 272.653 15.0661C271.901 15.1062 271.153 15.1463 270.401 15.1837C270.351 15.1864 270.289 15.1583 270.231 15.1463C270.119 15.1222 270.004 15.0995 269.888 15.0768C269.681 15.0875 269.479 15.1008 269.272 15.1088C269.123 15.1142 268.991 15.1329 268.97 15.1837C268.958 15.2171 269.094 15.2478 269.239 15.2451C269.38 15.2425 269.52 15.2264 269.636 15.2438C270.21 15.3293 270.21 15.3307 270.57 15.3133C270.884 15.2973 270.851 15.2839 271.128 15.3574C271.248 15.3895 271.355 15.4082 271.492 15.4001C271.831 15.3814 272.174 15.3627 272.517 15.3467C272.571 15.344 272.641 15.3574 272.695 15.3681C273.1 15.4483 273.1 15.4509 273.435 15.4309C273.873 15.4068 273.889 15.4001 274.183 15.4817C274.385 15.5378 274.571 15.499 274.766 15.4964C274.989 15.5485 275.233 15.5952 275.435 15.654C275.675 15.7235 275.927 15.7115 276.2 15.6914C276.402 15.6767 276.601 15.6714 276.766 15.7262C276.923 15.777 277.113 15.7823 277.328 15.7689C277.523 15.7569 277.721 15.7315 277.924 15.7609C277.977 15.7689 278.06 15.789 278.056 15.801C278.052 15.8197 277.998 15.8464 277.944 15.8545C277.564 15.9092 277.147 15.9079 276.746 15.9333C276.692 15.9373 276.622 15.9226 276.568 15.9119C276.452 15.8879 276.34 15.8598 276.229 15.8344C276.026 15.8424 275.82 15.8451 275.621 15.8611C275.468 15.8732 275.353 15.8718 275.241 15.8398C275.138 15.8104 275.026 15.7743 274.902 15.7649C274.778 15.7556 274.633 15.7756 274.497 15.7836C274.361 15.7917 274.203 15.7876 274.096 15.809C273.989 15.8304 273.922 15.8772 273.852 15.9146C273.774 15.956 273.666 15.9694 273.509 15.9734C273.364 15.9774 273.249 15.972 273.141 15.9346C273.096 15.9186 273.034 15.9066 272.972 15.8959C272.914 15.8865 272.848 15.8718 272.794 15.8745C272.178 15.9052 271.566 15.9386 270.95 15.9707C270.644 15.9867 270.649 15.9867 270.012 15.9079C269.954 15.9012 269.884 15.8919 269.826 15.8945C269.483 15.9106 269.144 15.9293 268.801 15.948C268.454 15.9667 268.458 15.964 267.867 15.8798C267.759 15.8638 267.602 15.8852 267.474 15.8825C267.205 15.8758 267.073 15.7636 266.759 15.785C266.49 15.8037 266.209 15.8077 265.94 15.8317C265.697 15.8531 265.556 15.8064 265.391 15.7703C265.333 15.7583 265.271 15.7315 265.221 15.7342C264.605 15.7636 263.994 15.797 263.175 15.801C262.973 15.801 263.063 15.8291 263.196 15.8384C263.386 15.8531 263.448 15.8251 263.345 15.7716C263.27 15.7342 263.163 15.7155 263.076 15.7248C263.03 15.7302 262.973 15.7556 263.175 15.801C263.39 15.8518 263.378 15.8798 263.415 15.8959C263.506 15.9346 263.634 15.9507 263.766 15.9453C263.973 15.936 264.175 15.9226 264.382 15.9146C264.44 15.9119 264.51 15.9213 264.564 15.932C265.019 16.0148 265.023 16.0202 265.506 15.9881C265.659 15.9787 265.771 15.9787 265.891 16.0041C266.056 16.0389 266.176 16.0976 266.428 16.0789C266.763 16.0535 267.106 16.0389 267.449 16.0242C267.503 16.0215 267.561 16.0455 267.623 16.0562C267.792 16.0883 267.916 16.1484 268.168 16.123C268.363 16.103 268.574 16.0976 268.78 16.0936C268.834 16.0923 268.917 16.1137 268.941 16.1311C268.991 16.1618 268.929 16.1979 268.788 16.2233C268.731 16.2339 268.652 16.2313 268.586 16.2353C268.313 16.25 268.04 16.266 267.767 16.278C267.623 16.2847 267.486 16.3048 267.47 16.3542C267.457 16.3876 267.606 16.417 267.747 16.4143C267.953 16.4103 268.16 16.3996 268.359 16.3823C268.71 16.3529 269.016 16.3609 269.301 16.4451C269.504 16.5038 269.491 16.4825 269.706 16.6562C269.76 16.7003 269.921 16.7043 270.062 16.7016C270.401 16.6949 270.558 16.715 270.529 16.7564C270.491 16.8072 270.372 16.8232 270.219 16.8299C269.946 16.8406 269.673 16.858 269.4 16.8727C269.334 16.8767 269.26 16.8847 269.198 16.882C269.136 16.8793 269.078 16.8633 269.024 16.8513C268.908 16.8259 268.809 16.7871 268.685 16.7778C268.561 16.7684 268.416 16.7885 268.28 16.7965C268.144 16.8032 267.999 16.8232 267.875 16.8138C267.751 16.8045 267.648 16.7644 267.536 16.7404C267.482 16.7283 267.416 16.7096 267.362 16.711C267.09 16.7216 266.817 16.739 266.544 16.7524C266.209 16.7698 266.209 16.7698 265.804 16.6869C265.688 16.6629 265.568 16.6642 265.416 16.6749C265.085 16.6963 265.081 16.6923 264.477 16.6148C264.419 16.6067 264.349 16.5974 264.291 16.6014C263.675 16.6321 263.063 16.6655 262.452 16.6976C261.927 16.7257 261.927 16.7257 261.637 16.8593C261.422 16.9582 261.418 16.9582 261.629 17.0036C261.799 17.041 261.952 17.0958 262.138 17.1158C262.311 17.1345 262.526 17.0744 262.716 17.1359C262.811 17.1666 262.935 17.2 263.055 17.2054C263.245 17.212 263.448 17.1733 263.63 17.2321C263.721 17.2615 263.857 17.2922 263.973 17.2936C264.175 17.2962 264.382 17.2748 264.585 17.2655C264.647 17.2628 264.717 17.2628 264.775 17.2695C264.837 17.2775 264.891 17.2936 264.944 17.3069C265.11 17.3523 265.287 17.3737 265.502 17.351C265.854 17.3136 266.168 17.3323 266.441 17.4178C266.478 17.4298 266.569 17.4312 266.627 17.4258C266.775 17.4125 266.904 17.4111 267.015 17.4365C267.061 17.4472 267.127 17.4659 267.119 17.4779C267.106 17.498 267.056 17.5247 267.003 17.5314C266.614 17.5768 266.197 17.5822 265.796 17.6062C265.742 17.6089 265.676 17.5915 265.622 17.5795C265.506 17.5554 265.407 17.5154 265.283 17.506C265.159 17.4967 265.015 17.514 264.878 17.5207C264.742 17.5274 264.597 17.5474 264.473 17.5394C264.349 17.5301 264.233 17.4967 264.134 17.4673C264.018 17.4339 263.907 17.4299 263.754 17.4432C263.555 17.4606 263.349 17.4633 263.146 17.4726C263.035 17.4472 262.923 17.4191 262.807 17.3951C262.753 17.3831 262.687 17.3684 262.63 17.3697C262.357 17.3804 262.084 17.3964 261.811 17.4111C261.538 17.4258 261.538 17.4258 261.075 17.343C261.022 17.3336 260.951 17.323 260.893 17.3256C260.55 17.3417 260.211 17.3617 259.868 17.3777C259.736 17.3844 259.616 17.3657 259.509 17.3296C259.405 17.2935 259.281 17.2735 259.153 17.2802C258.608 17.3082 258.062 17.335 257.516 17.3684C257.297 17.3817 257.111 17.3697 256.962 17.3216C256.789 17.2668 256.594 17.2802 256.392 17.2909C255.933 17.3176 255.929 17.3163 255.635 17.2481C255.578 17.2348 255.52 17.2094 255.466 17.2107C254.991 17.2307 254.511 17.2495 254.04 17.2815C253.792 17.2989 253.66 17.2521 253.494 17.2174C253.436 17.2054 253.374 17.18 253.325 17.1826C252.982 17.1973 252.639 17.2107 252.304 17.2374C251.969 17.2642 251.841 17.1399 251.589 17.1412C251.246 17.1426 250.907 17.1733 250.568 17.192C250.295 17.2067 250.022 17.2214 249.749 17.2361C249.476 17.2508 249.204 17.2628 248.931 17.2802C248.786 17.2895 248.679 17.2775 248.559 17.2441C248.406 17.2 248.224 17.1653 248.059 17.1252C247.807 17.0677 247.807 17.0677 247.501 17.0838C247.435 17.0878 247.364 17.0904 247.298 17.0944C246.798 17.1238 246.798 17.1212 246.161 17.037C246.132 17.033 246.058 17.0477 246.029 17.0584C245.942 17.0931 245.864 17.1305 245.785 17.1666C245.674 17.1452 245.537 17.1332 245.463 17.1025C245.252 17.0156 244.921 17.1345 244.706 17.049C244.628 17.017 244.491 16.9889 244.367 16.9809C244.239 16.9729 244.095 16.9916 243.962 16.9996C243.619 17.0196 243.619 17.0183 243.326 17.1372C243.177 17.196 242.962 17.1853 242.768 17.1987C242.565 17.2134 242.371 17.2214 242.201 17.1666C242.048 17.1172 241.863 17.1051 241.643 17.1212C241.375 17.1412 241.098 17.1532 240.825 17.1653C240.767 17.1679 240.697 17.1613 240.639 17.1533C240.006 17.0744 240.006 17.0731 239.701 17.0905C239.564 17.0985 239.424 17.1011 239.291 17.1132C239.068 17.1345 238.899 17.1065 238.738 17.0637C238.684 17.0504 238.622 17.025 238.568 17.0263C238.295 17.033 238.027 17.045 237.758 17.057C237.551 17.0664 237.345 17.0717 237.146 17.0905C236.815 17.1212 236.654 17.0343 236.427 16.9942C236.088 17.0116 235.745 17.0236 235.406 17.0477C235.249 17.0584 235.146 17.0544 235.026 17.0223C234.873 16.9822 234.732 16.9368 234.484 16.9568C234.153 16.9836 233.806 16.9929 233.467 17.0089C233.24 16.9675 233.075 16.8833 232.748 16.9141C232.55 16.9328 232.339 16.9368 232.136 16.9475C231.863 16.9622 231.591 16.9755 231.318 16.9916C231.024 17.0076 231.028 17.0036 230.578 16.9248C230.318 16.878 230.049 16.9301 229.784 16.9381C229.578 16.9448 229.474 17.0063 229.524 17.0851C229.573 17.1639 229.462 17.2254 229.272 17.2361C228.796 17.2615 228.317 17.2882 227.841 17.3109C227.784 17.3136 227.713 17.3042 227.66 17.2949C227.151 17.2107 227.151 17.212 226.924 17.2241C226.585 17.2441 226.238 17.2548 225.903 17.2802C225.671 17.2976 225.502 17.2695 225.353 17.2241C225.237 17.1893 225.13 17.1813 224.981 17.1893C223.344 17.2789 221.707 17.3617 220.075 17.4539C219.831 17.4673 219.69 17.4285 219.525 17.3924C219.467 17.3804 219.413 17.355 219.355 17.355C219.219 17.355 219.082 17.367 218.946 17.3751C218.334 17.4071 217.723 17.4459 217.107 17.4699C216.846 17.4806 216.776 17.5421 216.664 17.5929C216.578 17.6316 216.478 17.6476 216.325 17.653C216.177 17.6583 216.069 17.6517 215.953 17.6169C215.805 17.5715 215.635 17.5434 215.404 17.5621C215.135 17.5835 214.862 17.5929 214.585 17.6076C214.445 17.6142 214.337 17.6383 214.292 17.6864C214.283 17.6944 214.37 17.7145 214.42 17.7265C214.585 17.7666 214.742 17.8133 214.928 17.8414C215.118 17.8695 215.325 17.8374 215.523 17.8294C215.594 17.8267 215.66 17.8187 215.726 17.82C215.788 17.8214 215.862 17.828 215.908 17.8401C216.123 17.9002 216.35 17.9416 216.648 17.9055C216.904 17.9229 217.036 18.0338 217.363 18.0044C217.561 17.987 217.768 17.979 217.975 17.9723C218.028 17.971 218.086 17.9951 218.144 18.0071C218.31 18.0405 218.442 18.0939 218.69 18.0712C218.954 18.0472 219.235 18.0432 219.504 18.0245C219.653 18.0138 219.76 18.0231 219.876 18.0579C220.025 18.102 220.194 18.1354 220.426 18.114C220.624 18.0953 220.835 18.0913 221.038 18.0792C221.302 18.0645 221.302 18.0659 221.773 18.1487C221.827 18.1581 221.897 18.1688 221.955 18.1661C222.298 18.1501 222.637 18.13 222.98 18.114C223.113 18.1073 223.241 18.1247 223.332 18.1634C223.369 18.1794 223.357 18.2062 223.369 18.2289C222.687 18.265 222.005 18.2957 221.327 18.3398C221.071 18.3572 220.955 18.3024 220.785 18.2717C220.728 18.261 220.666 18.2383 220.612 18.2409C220.132 18.2636 219.657 18.2877 219.182 18.3171C219.033 18.3264 218.921 18.3211 218.81 18.2823C218.524 18.1795 218.177 18.2356 217.855 18.2503C217.607 18.261 217.528 18.3024 217.557 18.3906C217.594 18.4948 217.743 18.5269 218.123 18.5082C218.26 18.5015 218.396 18.4921 218.533 18.4868C218.665 18.4814 218.785 18.4988 218.892 18.5349C218.996 18.571 219.12 18.5897 219.248 18.5843C219.521 18.5723 219.798 18.5603 220.062 18.5402C220.281 18.5242 220.463 18.5376 220.616 18.587C220.785 18.6418 220.984 18.6298 221.182 18.6177C221.645 18.591 221.649 18.5923 221.939 18.6592C221.997 18.6725 222.055 18.6979 222.108 18.6966C222.584 18.6765 223.063 18.6592 223.53 18.6271C223.774 18.6111 223.915 18.6538 224.076 18.6886C224.134 18.7006 224.192 18.7273 224.245 18.7246C224.588 18.7099 224.931 18.6952 225.266 18.6698C225.423 18.6578 225.518 18.6658 225.647 18.6979C225.952 18.7767 225.961 18.7741 226.395 18.7487C226.527 18.7407 226.672 18.726 226.796 18.7367C226.92 18.7473 227.019 18.7861 227.135 18.8102C227.188 18.8208 227.254 18.8355 227.312 18.8329C227.585 18.8222 227.858 18.8061 228.131 18.7914C228.387 18.7767 228.387 18.7781 228.867 18.8609C229.061 18.8957 229.263 18.8663 229.458 18.8556C229.669 18.8436 229.859 18.8436 230.02 18.8957C230.181 18.9478 230.375 18.9451 230.582 18.9344C230.776 18.9237 230.975 18.8943 231.173 18.9304C231.628 19.0133 231.628 19.0146 231.909 18.9985C232.318 18.9758 232.723 18.9545 233.137 18.9344C233.19 18.9317 233.261 18.9478 233.314 18.9585C233.43 18.9825 233.529 19.0226 233.653 19.0319C233.777 19.0426 233.922 19.0266 234.054 19.0186C234.48 18.9932 234.509 18.9839 234.794 19.072C235.034 19.1442 235.332 19.04 235.555 19.1228C235.683 19.1696 235.856 19.207 236.096 19.1843C236.295 19.1656 236.501 19.1602 236.708 19.1495C237.034 19.1322 237.034 19.1335 237.448 19.2137C237.502 19.2244 237.572 19.2377 237.626 19.2351C237.898 19.2244 238.175 19.215 238.44 19.191C238.75 19.1629 238.948 19.2137 239.18 19.2631C239.362 19.3019 239.577 19.2698 239.771 19.2564C239.982 19.2431 240.172 19.2471 240.329 19.2992C240.494 19.3526 240.689 19.346 240.895 19.3353C241.09 19.3259 241.288 19.2952 241.486 19.3326C241.912 19.4154 241.912 19.4154 242.222 19.3994C242.495 19.3847 242.768 19.3687 243.041 19.358C243.094 19.3553 243.16 19.3727 243.214 19.3847C243.33 19.4088 243.429 19.4489 243.553 19.4582C243.677 19.4676 243.822 19.4502 243.958 19.4435C244.095 19.4368 244.239 19.4168 244.363 19.4248C244.487 19.4328 244.603 19.4662 244.702 19.4956C244.818 19.5304 244.925 19.5344 245.083 19.521C245.281 19.5036 245.488 19.4996 245.69 19.4903C245.802 19.5157 245.917 19.541 246.025 19.5691C246.137 19.5985 246.256 19.5958 246.409 19.5865C246.918 19.5544 246.922 19.5584 247.348 19.6413C247.542 19.6787 247.745 19.6479 247.939 19.6386C248.146 19.6279 248.34 19.6226 248.501 19.676C248.658 19.7268 248.852 19.7335 249.059 19.7174C249.191 19.7067 249.332 19.7001 249.468 19.6961C249.53 19.6947 249.605 19.7001 249.65 19.7108C249.869 19.7669 250.084 19.8177 250.386 19.7816C250.65 19.7923 250.783 19.9018 251.101 19.8805C251.37 19.8617 251.651 19.8577 251.915 19.8337C252.159 19.8123 252.333 19.8497 252.457 19.8965C252.68 19.9793 252.994 19.8671 253.217 19.9486C253.346 19.9954 253.511 20.0328 253.759 20.0127C254.032 19.9914 254.118 20.0194 254.197 20.1036C254.242 20.1517 254.234 20.1905 254.152 20.2279C254.069 20.2666 253.978 20.2599 253.846 20.2158C253.693 20.1664 253.511 20.157 253.292 20.1677C253.077 20.1784 252.945 20.1089 252.767 20.0822C252.589 20.0542 252.378 20.1009 252.192 20.0649C251.754 19.9807 251.754 19.9807 251.457 19.9967C251.254 20.0074 251.043 20.0127 250.845 20.0314C250.609 20.0542 250.456 20.0127 250.295 19.9753C250.237 19.962 250.179 19.9366 250.13 19.9379C249.654 19.9579 249.175 19.9767 248.703 20.0101C248.455 20.0274 248.323 19.9793 248.158 19.9459C248.1 19.9339 248.038 19.9098 247.988 19.9125C247.579 19.9312 247.174 19.9553 246.765 19.978C246.686 20.0141 246.6 20.0488 246.525 20.0876C246.447 20.1276 246.339 20.145 246.182 20.1437C245.922 20.1437 245.665 20.1998 245.405 20.129C245.136 20.0568 245.116 20.0608 244.855 20.0782C244.525 20.1009 244.173 20.0956 243.863 20.1477C243.809 20.157 243.752 20.1824 243.752 20.2011C243.747 20.2132 243.834 20.2305 243.888 20.2412C244.07 20.2733 244.281 20.2265 244.462 20.2599C244.582 20.2813 244.682 20.3134 244.801 20.3361C244.851 20.3454 244.925 20.3441 244.992 20.3428C245.062 20.3414 245.128 20.3321 245.194 20.3334C245.256 20.3348 245.322 20.3428 245.372 20.3548C245.599 20.4056 245.839 20.4523 246.042 20.5125C246.24 20.5713 246.426 20.5312 246.624 20.5285C247.418 20.622 247.418 20.6234 247.951 20.594C248.084 20.5873 248.22 20.5793 248.356 20.5806C248.414 20.5806 248.468 20.6047 248.526 20.618C248.691 20.6581 248.848 20.6942 249.08 20.6728C249.278 20.6541 249.489 20.6501 249.691 20.6381C249.964 20.6234 249.964 20.6234 250.427 20.7076C250.543 20.7289 250.667 20.7263 250.816 20.7156C250.944 20.7062 251.076 20.7263 251.167 20.765C251.204 20.7811 251.192 20.8078 251.204 20.8305C250.795 20.8519 250.382 20.8666 249.985 20.8986C249.729 20.9187 249.613 20.8612 249.443 20.8305C249.386 20.8198 249.324 20.7971 249.27 20.7998C248.865 20.8198 248.46 20.8425 248.055 20.8692C248.005 20.8719 247.943 20.9026 247.939 20.9213C247.931 20.9561 248.034 20.9895 248.183 20.9882C248.381 20.9868 248.575 20.9641 248.753 21.0189C248.902 21.067 249.088 21.0884 249.307 21.067C249.439 21.055 249.58 21.055 249.712 21.0443C250.064 21.0122 250.382 21.0189 250.646 21.1098C250.849 21.1338 251.047 21.1111 251.242 21.0991C251.386 21.0897 251.527 21.0804 251.63 21.1057C251.849 21.1592 252.064 21.2126 252.366 21.1766C252.692 21.214 252.94 21.2928 253.213 21.357C253.341 21.3877 253.441 21.4051 253.589 21.385C253.651 21.377 253.726 21.377 253.792 21.373C253.928 21.3663 254.073 21.3463 254.197 21.3543C254.321 21.3636 254.424 21.4024 254.536 21.4264C254.59 21.4385 254.652 21.4585 254.705 21.4572C254.912 21.4505 255.115 21.4371 255.317 21.4264C255.52 21.4171 255.722 21.4077 255.925 21.3984C256.094 21.4331 256.268 21.4679 256.437 21.5026C256.71 21.4879 256.983 21.4732 257.252 21.4598C257.554 21.4438 257.553 21.4451 257.987 21.528C258.182 21.5654 258.388 21.5413 258.574 21.524C258.884 21.4959 259.091 21.5467 259.31 21.6002C259.356 21.6108 259.438 21.6175 259.492 21.6122C259.707 21.5935 259.893 21.6082 260.05 21.6576C260.162 21.6923 260.273 21.7084 260.41 21.7017C260.885 21.6763 261.36 21.6496 261.836 21.6269C261.894 21.6242 261.96 21.6362 262.014 21.6469C262.435 21.7284 262.439 21.7324 262.749 21.711C263.026 21.6923 263.283 21.6843 263.502 21.7578C263.547 21.7738 263.617 21.7966 263.667 21.7952C264.006 21.7819 264.349 21.7672 264.684 21.7445C264.837 21.7338 264.944 21.7378 265.064 21.7685C265.217 21.8073 265.354 21.854 265.606 21.8367C266.304 21.7872 266.308 21.7952 267.135 21.8874C267.193 21.8941 267.271 21.8834 267.338 21.8781C267.478 21.8647 267.581 21.8834 267.705 21.9142C267.982 21.9836 267.991 21.9796 268.255 21.9649C268.458 21.9529 268.669 21.9502 268.867 21.9302C269.173 21.9008 269.375 21.9529 269.603 22.0024C269.785 22.0411 269.995 22.009 270.19 21.997C270.401 21.9836 270.591 21.9876 270.748 22.0384C270.855 22.0732 270.971 22.0919 271.107 22.0852C271.583 22.0611 272.058 22.0344 272.533 22.0104C272.591 22.0077 272.662 22.0184 272.715 22.0277C273.187 22.1106 273.187 22.1146 273.654 22.0839C273.802 22.0745 273.926 22.0718 274.038 22.0999C274.146 22.1266 274.261 22.152 274.373 22.1774C274.575 22.168 274.782 22.1654 274.981 22.1493C275.133 22.1373 275.241 22.1427 275.361 22.1707C275.518 22.2068 275.65 22.2696 275.898 22.2388C276.026 22.2241 276.175 22.2282 276.303 22.2148C276.456 22.1974 276.56 22.2081 276.679 22.2429C276.828 22.2843 276.981 22.327 277.221 22.3057C277.485 22.2816 277.767 22.2776 278.035 22.2589C278.184 22.2482 278.287 22.2589 278.407 22.2936C278.556 22.3377 278.726 22.3658 278.957 22.3484C279.428 22.315 279.432 22.3217 279.891 22.4059C280.007 22.4273 280.131 22.4246 280.28 22.4139C280.408 22.4045 280.54 22.4246 280.631 22.4633C280.718 22.5061 280.71 22.5328 280.718 22.5555ZM243.884 10.5043C243.747 10.511 243.611 10.519 243.413 10.4027C243.4 10.3827 243.408 10.3586 243.38 10.3413C243.313 10.3052 243.21 10.2798 243.086 10.2758C242.863 10.2705 242.594 10.3159 242.598 10.3506C242.602 10.38 242.673 10.4054 242.809 10.4295C242.867 10.4388 242.912 10.4548 242.966 10.4655C243.123 10.4963 243.247 10.5564 243.475 10.5257C243.454 10.4842 243.433 10.4428 243.475 10.5257C243.454 10.5764 243.516 10.6125 243.665 10.6272C243.706 10.6312 243.768 10.6286 243.801 10.6205C243.929 10.5911 243.95 10.5511 243.855 10.4455C243.838 10.4629 243.851 10.4936 243.888 10.5016C243.925 10.5096 244.016 10.503 244.062 10.4936C244.177 10.4682 244.235 10.4348 244.206 10.4067C244.19 10.392 244.111 10.3733 244.062 10.3733C243.975 10.3733 243.896 10.4027 243.884 10.5043ZM277.308 26.0003C277.006 26.0257 276.659 26.0163 276.357 26.0684C276.303 26.0778 276.25 26.1018 276.245 26.1205C276.241 26.1326 276.324 26.1499 276.374 26.1593C276.485 26.1807 276.609 26.174 276.754 26.1673C276.973 26.1579 277.101 26.2194 277.271 26.2501C277.324 26.2595 277.395 26.2662 277.452 26.2635C277.787 26.2475 278.118 26.2301 278.453 26.2114C278.511 26.2074 278.573 26.198 278.622 26.186C278.788 26.1473 278.771 26.1219 278.61 26.0925C278.432 26.0604 278.292 26.0069 278.11 25.9816C277.849 25.9455 277.585 25.9936 277.308 26.0003ZM253.833 26.9757C253.631 26.9864 253.432 26.9971 253.23 27.0078C253.164 27.0118 253.093 27.0131 253.031 27.0185C252.903 27.0278 252.808 27.0559 252.746 27.1C252.841 27.1347 252.957 27.1548 253.085 27.1507C253.288 27.1427 253.486 27.1254 253.689 27.1213C253.908 27.116 254.036 27.1761 254.205 27.2069C254.259 27.2162 254.325 27.2176 254.387 27.2189C254.693 27.2242 254.879 27.1548 254.821 27.0572C254.78 26.9811 254.623 26.9356 254.433 26.945C254.234 26.9543 254.032 26.965 253.833 26.9757ZM278.721 24.0254C278.771 24.0026 278.825 23.9866 278.85 23.9666C278.924 23.8984 278.895 23.8476 278.759 23.7942C278.593 23.7287 278.391 23.7728 278.205 23.7795C278.159 23.7808 278.11 23.8089 278.085 23.8263C278.068 23.8383 278.068 23.8637 278.093 23.8704C278.296 23.9238 278.511 23.9732 278.721 24.0254ZM242.863 20.0782C242.664 20.0889 242.462 20.0969 242.263 20.1116C242.214 20.1156 242.168 20.141 242.139 20.1584C242.086 20.1904 242.144 20.2345 242.313 20.2385C242.507 20.2439 242.71 20.2212 242.912 20.2105C243.169 20.1971 243.322 20.1477 243.227 20.1049C243.136 20.0635 243.012 20.0555 242.863 20.0782ZM25.2766 17.2227C25.4089 17.2161 25.5453 17.2107 25.6776 17.2014C25.8016 17.192 25.8967 17.1626 25.9587 17.1185C25.8554 17.0838 25.7396 17.0651 25.6115 17.0691C25.4089 17.0771 25.2105 17.0878 25.0121 17.1011C24.8881 17.1092 24.7683 17.1386 24.7394 17.184C24.7104 17.2187 24.9873 17.2388 25.2766 17.2227ZM225.382 17.017C225.436 17.029 225.489 17.053 225.543 17.053C225.675 17.053 225.812 17.045 225.936 17.0317C225.99 17.0263 226.031 17.0023 226.056 16.9836C226.072 16.9715 226.068 16.9502 226.043 16.9395C225.924 16.8753 225.444 16.898 225.365 16.9715C225.357 16.9849 225.378 17.0023 225.382 17.017ZM212.341 9.69989C212.353 9.72127 212.357 9.74264 212.374 9.76402C212.407 9.80411 212.498 9.83351 212.63 9.85355C212.733 9.82015 212.787 9.78274 212.783 9.74265C212.779 9.72128 212.766 9.69988 212.75 9.6785C212.717 9.63842 212.626 9.60903 212.494 9.58899C212.39 9.62106 212.341 9.65846 212.341 9.69989ZM288.274 27.2082C288.237 27.2256 288.2 27.2429 288.158 27.259C288.27 27.2977 288.373 27.3098 288.452 27.2884C288.501 27.275 288.53 27.255 288.568 27.2376C288.456 27.1988 288.357 27.1882 288.274 27.2082ZM285.703 27.3899C285.757 27.402 285.806 27.418 285.864 27.426C285.959 27.4394 286.046 27.4166 286.112 27.3685C286.058 27.3565 286.009 27.3405 285.951 27.3325C285.856 27.3191 285.769 27.3418 285.703 27.3899ZM287.332 27.1454C287.303 27.1775 287.361 27.2042 287.513 27.2269C287.551 27.2095 287.6 27.1935 287.625 27.1748C287.666 27.1441 287.596 27.116 287.447 27.0946C287.406 27.1107 287.369 27.128 287.332 27.1454ZM278.606 25.705C278.577 25.737 278.635 25.7638 278.788 25.7865C278.825 25.7691 278.874 25.7531 278.899 25.7344C278.94 25.7036 278.87 25.6756 278.721 25.6542C278.68 25.6702 278.643 25.6876 278.606 25.705ZM266.718 16.25C266.68 16.2673 266.643 16.2847 266.602 16.3008C266.713 16.3395 266.817 16.3515 266.895 16.3301C266.945 16.3168 266.974 16.2967 267.011 16.2794C266.899 16.2406 266.8 16.2299 266.718 16.25ZM255.33 11.2338C255.429 11.2432 255.512 11.2245 255.582 11.1751C255.528 11.163 255.478 11.147 255.421 11.139C255.325 11.1256 255.239 11.1483 255.173 11.1964C255.226 11.2098 255.28 11.2218 255.33 11.2338ZM249.282 10.9198C249.245 10.9372 249.208 10.9546 249.167 10.9706C249.278 11.0094 249.381 11.0214 249.46 11C249.51 10.9867 249.539 10.9666 249.576 10.9492C249.464 10.9105 249.365 10.9011 249.282 10.9198ZM208.273 9.69855C208.236 9.71592 208.199 9.73329 208.158 9.74933C208.269 9.78808 208.372 9.8001 208.451 9.77872C208.501 9.76536 208.53 9.74531 208.567 9.72794C208.455 9.68919 208.356 9.67984 208.273 9.69855ZM4.07977 20.5699C4.02603 20.5579 3.97234 20.5459 3.92274 20.5325C3.80287 20.5686 3.76568 20.602 3.83181 20.6274C3.87315 20.6434 3.9351 20.6528 3.98884 20.6648C4.11285 20.6287 4.14177 20.5966 4.07977 20.5699Z" fill="#FFE492"/>
<path d="M23.6385 7.38041C23.1631 7.4058 22.6919 7.43786 22.2166 7.45389C21.9644 7.46191 21.8735 7.51937 21.7702 7.57282C21.6875 7.61558 21.5924 7.62893 21.4395 7.63695C20.1498 7.70243 18.8643 7.77191 17.5787 7.84006C17.4175 7.82269 17.339 7.79463 17.3762 7.76123C17.3968 7.74118 17.4465 7.71312 17.4961 7.71045C18.3765 7.66101 19.2528 7.61023 20.1374 7.57148C20.3895 7.56079 20.4598 7.502 20.588 7.45389C20.6293 7.43786 20.6624 7.41381 20.7161 7.40445C20.7699 7.39376 20.8484 7.3951 20.9187 7.39243C22.3406 7.31627 23.7626 7.24145 25.1845 7.16528C25.3457 7.18265 25.4243 7.21071 25.3871 7.24411C25.3664 7.26416 25.3168 7.29222 25.2672 7.29489C24.7215 7.32295 24.18 7.35101 23.6385 7.38041Z" fill="#FFE492"/>
<path d="M283.21 14.4959C282.996 14.5119 282.723 14.5347 282.5 14.4572C282.392 14.4197 282.276 14.4077 282.136 14.4157C281.933 14.4291 281.727 14.4398 281.52 14.4478C281.466 14.4491 281.396 14.4344 281.342 14.4224C281.226 14.3984 281.127 14.3583 281.003 14.3476C280.879 14.3369 280.73 14.3663 280.602 14.3596C280.433 14.3503 280.362 14.3142 280.408 14.2808C280.433 14.2621 280.482 14.2353 280.536 14.2313C281.301 14.1819 281.305 14.1819 281.52 14.23C281.685 14.2674 281.838 14.3088 282.074 14.2861C282.272 14.2674 282.483 14.2634 282.686 14.2514C282.967 14.2353 282.967 14.2367 283.421 14.3209C283.537 14.3422 283.661 14.3409 283.81 14.3289C283.938 14.3195 284.062 14.3409 284.165 14.377C284.099 14.4224 284.004 14.4518 283.876 14.4598C283.669 14.4732 283.467 14.4825 283.21 14.4959Z" fill="#FFE492"/>
<path d="M276.469 14.084C276.989 14.056 277.514 14.0319 278.035 13.9999C278.25 13.9865 278.42 14.0012 278.569 14.0466C278.73 14.0961 278.912 14.0921 279.11 14.0827C279.234 14.0774 279.354 14.0987 279.437 14.1361C279.47 14.1508 279.461 14.1776 279.474 14.1989C279.019 14.223 278.56 14.2484 278.101 14.2698C278.048 14.2724 277.982 14.2591 277.932 14.2484C277.82 14.2257 277.725 14.1856 277.605 14.1776C277.349 14.1589 277.093 14.1949 276.832 14.2016C276.708 14.2043 276.589 14.1842 276.506 14.1482C276.473 14.1308 276.481 14.1054 276.469 14.084Z" fill="#FFE492"/>
<path d="M87.1619 2.59563C87.7034 2.56623 88.2448 2.53819 88.7863 2.50879C88.9475 2.5275 89.0219 2.55422 88.9889 2.58762C88.9682 2.60766 88.9186 2.63572 88.869 2.6384C87.786 2.69853 86.703 2.75597 85.6242 2.81343C85.463 2.79472 85.3886 2.76801 85.4216 2.7346C85.4423 2.71456 85.4919 2.6865 85.5415 2.68382C86.0789 2.65309 86.6204 2.62503 87.1619 2.59563Z" fill="#FFE492"/>
<path d="M3.86965 10.0207C3.62577 10.0233 3.36954 10.0728 3.09673 10.0354C3.04299 10.0287 2.96857 10.0073 2.9727 9.99526C2.98097 9.97522 3.03058 9.94983 3.08431 9.94181C3.31993 9.9084 3.61344 9.9044 3.73331 9.81086C3.79118 9.76276 3.89865 9.74673 4.04333 9.73738C4.19627 9.72669 4.30371 9.73069 4.42358 9.75875C4.58066 9.79483 4.71295 9.86164 4.96096 9.8269C4.97336 9.84828 5.00223 9.87233 4.98982 9.89237C4.97742 9.91241 4.92378 9.93112 4.87417 9.94582C4.82871 9.95918 4.76664 9.97121 4.70877 9.97521C4.43596 9.99125 4.16313 10.0046 3.86965 10.0207Z" fill="#FFE492"/>
<path d="M219.523 9.75221C219.726 9.74152 219.937 9.73618 220.135 9.71747C220.292 9.70277 220.391 9.71212 220.515 9.74419C220.726 9.80031 220.738 9.79497 221.255 9.80299C221.313 9.80433 221.383 9.82436 221.416 9.84173C221.437 9.85108 221.408 9.87648 221.383 9.88985C221.346 9.90722 221.292 9.92992 221.243 9.92992C220.916 9.93393 220.586 10.0128 220.267 9.92191C220.106 9.87648 219.928 9.85509 219.709 9.87513C219.577 9.88716 219.436 9.89251 219.3 9.89785C219.168 9.9032 219.031 9.8885 218.949 9.84842C218.829 9.78962 218.899 9.76691 219.114 9.77092C219.25 9.77359 219.387 9.75889 219.523 9.75221Z" fill="#FFE492"/>
<path d="M294.085 18.9628C294.345 18.9494 294.606 18.9334 294.87 18.9227C294.924 18.92 294.99 18.9347 295.04 18.9441C295.238 18.9842 295.209 19.0523 295.217 19.1124C295.222 19.1752 294.763 19.226 294.568 19.1832C294.353 19.1351 294.159 19.0804 293.862 19.1098C293.746 19.1204 293.609 19.0964 293.535 19.0576C293.423 19.0015 293.485 18.9788 293.696 18.9828C293.82 18.9855 293.953 18.9708 294.085 18.9628Z" fill="#FFE492"/>
<path d="M162.247 0.775585C162.516 0.760887 162.785 0.738182 163.053 0.736846C163.211 0.73551 163.289 0.779596 163.252 0.811665C163.231 0.831708 163.182 0.859769 163.132 0.862442C162.595 0.894511 162.057 0.921239 161.52 0.950636C161.363 0.931929 161.284 0.903873 161.322 0.871804C161.342 0.851761 161.392 0.825036 161.441 0.821028C161.71 0.802321 161.979 0.790283 162.247 0.775585Z" fill="#FFE492"/>
<path d="M288.859 14.6133C289.119 14.5999 289.384 14.5798 289.644 14.5732C289.78 14.5705 289.888 14.6012 289.904 14.636C289.913 14.652 289.847 14.6801 289.793 14.6867C289.421 14.7322 289.02 14.7375 288.631 14.7602C288.507 14.7669 288.375 14.7455 288.301 14.7081C288.189 14.6507 288.251 14.6293 288.462 14.6333C288.594 14.6346 288.726 14.6199 288.859 14.6133Z" fill="#FFE492"/>
<path d="M225.968 9.93256C226.1 9.92588 226.236 9.9085 226.364 9.91385C226.501 9.92053 226.588 9.95928 226.629 9.99803C226.674 10.0421 226.67 10.0836 226.629 10.121C226.563 10.1851 226.497 10.1824 226.344 10.1397C226.108 10.0729 226.092 10.0809 225.624 10.0835C225.571 10.0835 225.505 10.0635 225.463 10.0461C225.401 10.0194 225.434 9.97799 225.579 9.95394C225.686 9.93657 225.835 9.93924 225.968 9.93256Z" fill="#FFE492"/>
<path d="M279.491 14.1748C279.685 14.1641 279.88 14.1468 280.074 14.1468C280.21 14.1454 280.318 14.1762 280.33 14.2096C280.334 14.2256 280.272 14.2523 280.223 14.2603C279.987 14.2964 279.723 14.2991 279.466 14.3111C279.346 14.3165 279.214 14.2951 279.14 14.2577C279.028 14.2015 279.094 14.1762 279.297 14.1842C279.359 14.1868 279.425 14.1788 279.491 14.1748Z" fill="#FFE492"/>
<path d="M248.222 12.5356C247.933 12.5517 247.66 12.5316 247.681 12.4969C247.71 12.4515 247.829 12.422 247.953 12.414C248.152 12.4007 248.35 12.39 248.553 12.382C248.681 12.3766 248.797 12.3967 248.9 12.4314C248.838 12.4742 248.743 12.5049 248.619 12.5142C248.491 12.5236 248.354 12.5289 248.222 12.5356Z" fill="#FFE492"/>
<path d="M246.776 12.3645C246.971 12.3538 247.165 12.3365 247.359 12.3365C247.495 12.3351 247.603 12.3659 247.615 12.3993C247.62 12.4153 247.558 12.442 247.508 12.45C247.272 12.4861 247.008 12.4888 246.751 12.5008C246.632 12.5062 246.499 12.4848 246.425 12.4474C246.313 12.3912 246.379 12.3659 246.582 12.3739C246.644 12.3766 246.71 12.3685 246.776 12.3645Z" fill="#FFE492"/>
<path d="M223.222 9.92203C223.416 9.91134 223.61 9.89396 223.804 9.89262C223.941 9.89128 224.048 9.92203 224.061 9.95543C224.065 9.97147 224.003 9.99686 223.953 10.0062C223.718 10.0423 223.453 10.045 223.197 10.057C223.077 10.0623 222.945 10.0409 222.87 10.0035C222.759 9.94742 222.825 9.92202 223.027 9.93004C223.089 9.93271 223.155 9.9247 223.222 9.92203Z" fill="#FFE492"/>
<path d="M222.029 9.84281C222.235 9.83212 222.302 9.82544 222.368 9.82544C222.492 9.82544 222.62 9.84148 222.694 9.88023C222.806 9.93635 222.74 9.95239 222.537 9.95506C222.277 9.95774 222.02 9.9858 221.76 9.99114C221.624 9.99382 221.516 9.96174 221.508 9.92833C221.504 9.9123 221.566 9.88424 221.615 9.87889C221.789 9.85885 221.979 9.84682 222.029 9.84281Z" fill="#FFE492"/>
<path d="M245.661 1.98204C245.529 1.98872 245.388 2.00743 245.264 2.00074C245.099 1.99139 245.033 1.95532 245.074 1.92191C245.099 1.90321 245.145 1.87648 245.194 1.87247C245.459 1.85377 245.727 1.84173 245.992 1.82837C246.149 1.84841 246.219 1.87647 246.178 1.90988C246.153 1.92858 246.108 1.95397 246.058 1.95931C245.93 1.97268 245.794 1.97536 245.661 1.98204Z" fill="#FFE492"/>
<path d="M84.5808 2.75325C84.7089 2.75191 84.8246 2.76928 84.9238 2.80268C84.8618 2.84544 84.7709 2.8735 84.6469 2.88553C84.5849 2.89087 84.5146 2.89488 84.4485 2.89621C84.3203 2.89888 84.2046 2.88018 84.1053 2.84677C84.1673 2.80401 84.2624 2.77596 84.3823 2.76393C84.4443 2.75858 84.5146 2.75725 84.5808 2.75325Z" fill="#FFE492"/>
<path d="M286.937 14.6081C286.933 14.5694 287.185 14.5253 287.413 14.5266C287.533 14.528 287.657 14.5467 287.727 14.5828C287.834 14.6376 287.772 14.6589 287.57 14.6549C287.446 14.6522 287.314 14.675 287.19 14.6709C287.049 14.6696 286.966 14.6402 286.937 14.6081Z" fill="#FFE492"/>
<path d="M226.758 10.0941C226.754 10.0794 226.734 10.062 226.746 10.0487C226.825 9.97517 227.3 9.95245 227.424 10.0166C227.445 10.0286 227.453 10.0487 227.436 10.0607C227.412 10.0794 227.366 10.1034 227.316 10.1088C227.188 10.1221 227.056 10.1288 226.924 10.1302C226.866 10.1302 226.812 10.1074 226.758 10.0941Z" fill="#FFE492"/>
<path d="M6.0411 9.80676C5.55334 9.83482 5.54508 9.83214 5.63188 9.76533C5.71042 9.7052 5.85511 9.66912 6.06593 9.66912C6.12793 9.66912 6.19404 9.66645 6.24778 9.6718C6.30565 9.67848 6.38837 9.69183 6.40077 9.70786C6.42557 9.7386 6.35523 9.772 6.23123 9.79472C6.17749 9.80541 6.10724 9.80275 6.0411 9.80676Z" fill="#FFE492"/>
<path d="M91.0352 2.56449C90.8905 2.58721 90.7666 2.5792 90.6756 2.53644C90.5847 2.49368 90.7294 2.4429 90.9815 2.43087C91.0477 2.4282 91.1179 2.41752 91.1799 2.42286C91.2419 2.42687 91.304 2.44289 91.3412 2.45893C91.4073 2.48565 91.366 2.52174 91.2337 2.55247C91.18 2.5645 91.1013 2.56182 91.0352 2.56449Z" fill="#FFE492"/>
<path d="M286.946 14.5078C286.983 14.4904 287.02 14.4731 287.062 14.457C287.215 14.4797 287.281 14.5065 287.239 14.5372C287.215 14.5559 287.165 14.5719 287.128 14.5893C286.975 14.5666 286.913 14.5385 286.946 14.5078Z" fill="#FFE492"/>
<path d="M12.1327 25.0184C12.1327 25.0024 12.1906 24.977 12.236 24.9716C12.3228 24.9623 12.4303 24.981 12.5047 25.0184C12.608 25.0718 12.5461 25.0999 12.3559 25.0852C12.2236 25.0745 12.1327 25.0478 12.1327 25.0184Z" fill="#FFE492"/>
<path d="M228.303 8.85047C228.357 8.8625 228.41 8.87453 228.46 8.88789C228.39 8.93733 228.303 8.9587 228.212 8.94534C228.154 8.93732 228.104 8.92128 228.051 8.90926C228.121 8.85982 228.204 8.84112 228.303 8.85047Z" fill="#FFE492"/>
<path d="M226.854 8.79017C226.936 8.77013 227.036 8.78083 227.151 8.81958C227.114 8.83695 227.081 8.85699 227.036 8.87035C226.957 8.89173 226.854 8.88103 226.742 8.84095C226.775 8.82491 226.812 8.80754 226.854 8.79017Z" fill="#FFE492"/>
<path d="M225.686 8.84923C225.739 8.86126 225.793 8.87329 225.843 8.88665C225.772 8.93609 225.69 8.95746 225.595 8.9441C225.537 8.93608 225.487 8.92004 225.433 8.90802C225.504 8.85858 225.586 8.83854 225.686 8.84923Z" fill="#FFE492"/>
<path d="M225.715 8.77838C225.777 8.80511 225.744 8.83717 225.624 8.87325C225.57 8.86122 225.508 8.85188 225.467 8.83585C225.401 8.81046 225.434 8.77704 225.558 8.74097C225.607 8.75433 225.661 8.76636 225.715 8.77838Z" fill="#FFE492"/>
</svg>
